<svg width="374" height="114" viewBox="0 0 374 114" fill="none" xmlns="http://www.w3.org/2000/svg">
    <path d="M136.212 51.408C134.376 51.408 132.665 51.1133 131.078 50.524C129.514 49.912 128.154 49.0507 126.998 47.94C125.842 46.8293 124.935 45.526 124.278 44.03C123.643 42.534 123.326 40.8907 123.326 39.1C123.326 37.3093 123.643 35.666 124.278 34.17C124.935 32.674 125.842 31.3707 126.998 30.26C128.177 29.1493 129.548 28.2993 131.112 27.71C132.676 27.098 134.387 26.792 136.246 26.792C138.309 26.792 140.167 27.1547 141.822 27.88C143.499 28.5827 144.905 29.6253 146.038 31.008L142.502 34.272C141.686 33.3427 140.779 32.6513 139.782 32.198C138.785 31.722 137.697 31.484 136.518 31.484C135.407 31.484 134.387 31.6653 133.458 32.028C132.529 32.3907 131.724 32.912 131.044 33.592C130.364 34.272 129.831 35.0767 129.446 36.006C129.083 36.9353 128.902 37.9667 128.902 39.1C128.902 40.2333 129.083 41.2647 129.446 42.194C129.831 43.1233 130.364 43.928 131.044 44.608C131.724 45.288 132.529 45.8093 133.458 46.172C134.387 46.5347 135.407 46.716 136.518 46.716C137.697 46.716 138.785 46.4893 139.782 46.036C140.779 45.56 141.686 44.846 142.502 43.894L146.038 47.158C144.905 48.5407 143.499 49.5947 141.822 50.32C140.167 51.0453 138.297 51.408 136.212 51.408ZM157.457 51.272C155.507 51.272 153.773 50.864 152.255 50.048C150.759 49.232 149.569 48.1213 148.685 46.716C147.823 45.288 147.393 43.6673 147.393 41.854C147.393 40.018 147.823 38.3973 148.685 36.992C149.569 35.564 150.759 34.4533 152.255 33.66C153.773 32.844 155.507 32.436 157.457 32.436C159.383 32.436 161.106 32.844 162.625 33.66C164.143 34.4533 165.333 35.5527 166.195 36.958C167.056 38.3633 167.487 39.9953 167.487 41.854C167.487 43.6673 167.056 45.288 166.195 46.716C165.333 48.1213 164.143 49.232 162.625 50.048C161.106 50.864 159.383 51.272 157.457 51.272ZM157.457 46.92C158.341 46.92 159.134 46.716 159.837 46.308C160.539 45.9 161.095 45.322 161.503 44.574C161.911 43.8033 162.115 42.8967 162.115 41.854C162.115 40.7887 161.911 39.882 161.503 39.134C161.095 38.386 160.539 37.808 159.837 37.4C159.134 36.992 158.341 36.788 157.457 36.788C156.573 36.788 155.779 36.992 155.077 37.4C154.374 37.808 153.807 38.386 153.377 39.134C152.969 39.882 152.765 40.7887 152.765 41.854C152.765 42.8967 152.969 43.8033 153.377 44.574C153.807 45.322 154.374 45.9 155.077 46.308C155.779 46.716 156.573 46.92 157.457 46.92ZM179.736 51.272C177.787 51.272 176.053 50.864 174.534 50.048C173.038 49.232 171.848 48.1213 170.964 46.716C170.103 45.288 169.672 43.6673 169.672 41.854C169.672 40.018 170.103 38.3973 170.964 36.992C171.848 35.564 173.038 34.4533 174.534 33.66C176.053 32.844 177.787 32.436 179.736 32.436C181.663 32.436 183.385 32.844 184.904 33.66C186.423 34.4533 187.613 35.5527 188.474 36.958C189.335 38.3633 189.766 39.9953 189.766 41.854C189.766 43.6673 189.335 45.288 188.474 46.716C187.613 48.1213 186.423 49.232 184.904 50.048C183.385 50.864 181.663 51.272 179.736 51.272ZM179.736 46.92C180.62 46.92 181.413 46.716 182.116 46.308C182.819 45.9 183.374 45.322 183.782 44.574C184.19 43.8033 184.394 42.8967 184.394 41.854C184.394 40.7887 184.19 39.882 183.782 39.134C183.374 38.386 182.819 37.808 182.116 37.4C181.413 36.992 180.62 36.788 179.736 36.788C178.852 36.788 178.059 36.992 177.356 37.4C176.653 37.808 176.087 38.386 175.656 39.134C175.248 39.882 175.044 40.7887 175.044 41.854C175.044 42.8967 175.248 43.8033 175.656 44.574C176.087 45.322 176.653 45.9 177.356 46.308C178.059 46.716 178.852 46.92 179.736 46.92ZM197.697 47.26L197.833 40.8L206.367 32.708H212.691L204.497 41.038L201.743 43.282L197.697 47.26ZM193.311 51V25.772H198.615V51H193.311ZM206.945 51L200.757 43.316L204.089 39.202L213.371 51H206.945ZM221.677 51L213.891 27.2H219.603L226.369 48.28H223.513L230.585 27.2H235.685L242.485 48.28H239.731L246.667 27.2H251.937L244.151 51H238.235L232.217 32.504H233.781L227.593 51H221.677ZM262.354 51.272C260.269 51.272 258.433 50.864 256.846 50.048C255.282 49.232 254.069 48.1213 253.208 46.716C252.347 45.288 251.916 43.6673 251.916 41.854C251.916 40.018 252.335 38.3973 253.174 36.992C254.035 35.564 255.203 34.4533 256.676 33.66C258.149 32.844 259.815 32.436 261.674 32.436C263.465 32.436 265.074 32.8213 266.502 33.592C267.953 34.34 269.097 35.428 269.936 36.856C270.775 38.2613 271.194 39.95 271.194 41.922C271.194 42.126 271.183 42.364 271.16 42.636C271.137 42.8853 271.115 43.1233 271.092 43.35H256.234V40.256H268.304L266.264 41.174C266.264 40.222 266.071 39.3947 265.686 38.692C265.301 37.9893 264.768 37.4453 264.088 37.06C263.408 36.652 262.615 36.448 261.708 36.448C260.801 36.448 259.997 36.652 259.294 37.06C258.614 37.4453 258.081 38.0007 257.696 38.726C257.311 39.4287 257.118 40.2673 257.118 41.242V42.058C257.118 43.0553 257.333 43.9393 257.764 44.71C258.217 45.458 258.841 46.036 259.634 46.444C260.45 46.8293 261.402 47.022 262.49 47.022C263.465 47.022 264.315 46.8747 265.04 46.58C265.788 46.2853 266.468 45.8433 267.08 45.254L269.902 48.314C269.063 49.266 268.009 50.0027 266.74 50.524C265.471 51.0227 264.009 51.272 262.354 51.272ZM274.725 51V25.772H280.029V51H274.725ZM284.952 51V25.772H290.256V51H284.952Z" fill="#2FC822"/>
    <path d="M141.096 71.92C141.096 73.1667 140.656 74.2447 139.776 75.154C138.896 76.0487 137.613 76.694 135.926 77.09C136.835 77.3393 137.525 77.75 137.994 78.322C138.463 78.8793 138.698 79.5247 138.698 80.258C138.698 81.4167 138.331 82.4213 137.598 83.272C136.879 84.1227 135.823 84.7827 134.43 85.252C133.037 85.7067 131.357 85.934 129.392 85.934C128.659 85.934 128.072 85.912 127.632 85.868C127.617 86.2787 127.441 86.5867 127.104 86.792C126.767 86.9973 126.334 87.1 125.806 87.1C125.278 87.1 124.911 86.9827 124.706 86.748C124.515 86.5133 124.435 86.1687 124.464 85.714C124.596 83.6607 124.853 81.512 125.234 79.268C125.615 77.0093 126.099 74.8313 126.686 72.734C126.789 72.3673 126.994 72.1107 127.302 71.964C127.61 71.8173 128.013 71.744 128.512 71.744C129.407 71.744 129.854 71.9933 129.854 72.492C129.854 72.6973 129.81 72.932 129.722 73.196C129.341 74.34 128.959 75.8947 128.578 77.86C128.197 79.8107 127.925 81.6733 127.764 83.448C128.468 83.5067 129.04 83.536 129.48 83.536C131.533 83.536 133.037 83.2427 133.99 82.656C134.958 82.0547 135.442 81.292 135.442 80.368C135.442 79.7227 135.163 79.18 134.606 78.74C134.063 78.3 133.147 78.058 131.856 78.014C131.563 77.9993 131.357 77.926 131.24 77.794C131.123 77.662 131.064 77.4493 131.064 77.156C131.064 76.7307 131.152 76.386 131.328 76.122C131.504 75.858 131.827 75.7187 132.296 75.704C133.337 75.6747 134.276 75.5207 135.112 75.242C135.963 74.9633 136.63 74.5747 137.114 74.076C137.598 73.5627 137.84 72.9687 137.84 72.294C137.84 71.4433 137.422 70.776 136.586 70.292C135.75 69.7933 134.467 69.544 132.736 69.544C131.167 69.544 129.649 69.7493 128.182 70.16C126.715 70.556 125.469 71.062 124.442 71.678C123.973 71.9567 123.577 72.096 123.254 72.096C122.99 72.096 122.785 72.008 122.638 71.832C122.506 71.6413 122.44 71.4067 122.44 71.128C122.44 70.7613 122.513 70.446 122.66 70.182C122.821 69.918 123.195 69.6173 123.782 69.28C125.014 68.576 126.459 68.026 128.116 67.63C129.773 67.234 131.467 67.036 133.198 67.036C135.853 67.036 137.833 67.4833 139.138 68.378C140.443 69.2727 141.096 70.4533 141.096 71.92ZM142.386 86.11C141.828 86.11 141.432 85.8167 141.198 85.23C140.978 84.6433 140.868 83.7047 140.868 82.414C140.868 80.5073 141.139 78.696 141.682 76.98C141.814 76.5547 142.026 76.2467 142.32 76.056C142.628 75.8507 143.053 75.748 143.596 75.748C143.889 75.748 144.094 75.7847 144.212 75.858C144.329 75.9313 144.388 76.0707 144.388 76.276C144.388 76.5107 144.278 77.0387 144.058 77.86C144.028 77.9627 143.962 78.1973 143.86 78.564C143.772 78.9307 143.684 79.3633 143.596 79.862C143.522 80.346 143.471 80.8813 143.442 81.468C143.97 79.4147 144.637 77.948 145.444 77.068C146.25 76.188 147.226 75.748 148.37 75.748C149.132 75.748 149.726 75.99 150.152 76.474C150.592 76.9433 150.812 77.552 150.812 78.3C150.812 78.916 150.672 79.4367 150.394 79.862C150.13 80.2873 149.778 80.5 149.338 80.5C149.059 80.5 148.832 80.434 148.656 80.302C148.494 80.17 148.414 79.9867 148.414 79.752C148.414 79.6493 148.428 79.532 148.458 79.4C148.487 79.268 148.509 79.1727 148.524 79.114C148.597 78.894 148.634 78.6887 148.634 78.498C148.634 78.102 148.443 77.904 148.062 77.904C147.768 77.904 147.482 78.058 147.204 78.366C146.925 78.6593 146.698 79.0627 146.522 79.576C146.36 80.0747 146.28 80.6173 146.28 81.204C146.28 81.996 146.463 82.634 146.83 83.118C147.196 83.5873 147.724 83.822 148.414 83.822C148.956 83.822 149.44 83.646 149.866 83.294C150.291 82.9273 150.878 82.2967 151.626 81.402C151.802 81.1967 152 81.094 152.22 81.094C152.41 81.094 152.557 81.182 152.66 81.358C152.777 81.534 152.836 81.776 152.836 82.084C152.836 82.6707 152.696 83.1253 152.418 83.448C151.758 84.24 151.098 84.8853 150.438 85.384C149.778 85.868 149.03 86.11 148.194 86.11C147.504 86.11 146.874 85.9633 146.302 85.67C145.744 85.362 145.29 84.9953 144.938 84.57C144.586 84.1447 144.358 83.734 144.256 83.338C144.226 83.4553 144.116 83.866 143.926 84.57C143.764 85.1567 143.574 85.56 143.354 85.78C143.148 86 142.826 86.11 142.386 86.11ZM162.314 81.138C162.505 81.138 162.651 81.2333 162.754 81.424C162.871 81.6 162.93 81.8273 162.93 82.106C162.93 82.4433 162.879 82.7073 162.776 82.898C162.673 83.0887 162.512 83.2573 162.292 83.404L158.068 86.242C157.511 89.278 156.777 91.6613 155.868 93.392C154.973 95.1373 153.829 96.01 152.436 96.01C151.688 96.01 151.079 95.7753 150.61 95.306C150.141 94.8513 149.906 94.25 149.906 93.502C149.906 92.8127 150.06 92.1087 150.368 91.39C150.691 90.6713 151.277 89.8427 152.128 88.904C152.993 87.98 154.211 86.9167 155.78 85.714L155.846 85.208C155.949 84.6653 156.066 83.888 156.198 82.876C155.905 83.932 155.494 84.7387 154.966 85.296C154.438 85.8387 153.881 86.11 153.294 86.11C152.634 86.11 152.091 85.8093 151.666 85.208C151.255 84.592 151.05 83.8293 151.05 82.92C151.05 81.82 151.123 80.8153 151.27 79.906C151.417 78.982 151.659 78.0067 151.996 76.98C152.143 76.54 152.348 76.2247 152.612 76.034C152.876 75.8433 153.294 75.748 153.866 75.748C154.189 75.748 154.409 75.7993 154.526 75.902C154.658 76.0047 154.724 76.1587 154.724 76.364C154.724 76.4813 154.643 76.8773 154.482 77.552C154.335 78.0947 154.218 78.586 154.13 79.026C154.013 79.6273 153.91 80.2067 153.822 80.764C153.734 81.3067 153.69 81.754 153.69 82.106C153.69 82.6633 153.844 82.942 154.152 82.942C154.372 82.942 154.643 82.722 154.966 82.282C155.303 81.842 155.655 81.1747 156.022 80.28C156.403 79.3853 156.77 78.2853 157.122 76.98C157.239 76.54 157.415 76.2247 157.65 76.034C157.899 75.8433 158.266 75.748 158.75 75.748C159.087 75.748 159.322 75.792 159.454 75.88C159.586 75.968 159.652 76.1147 159.652 76.32C159.652 76.6867 159.461 77.948 159.08 80.104L158.508 83.646C159.637 82.7953 160.737 82.018 161.808 81.314C161.999 81.1967 162.167 81.138 162.314 81.138ZM152.678 93.876C153.045 93.876 153.455 93.4507 153.91 92.6C154.365 91.7493 154.819 90.334 155.274 88.354C154.145 89.3073 153.323 90.1727 152.81 90.95C152.311 91.742 152.062 92.4313 152.062 93.018C152.062 93.2673 152.106 93.4727 152.194 93.634C152.297 93.7953 152.458 93.876 152.678 93.876ZM165.779 86.11C164.342 86.11 163.22 85.7067 162.413 84.9C161.621 84.0787 161.225 83.0007 161.225 81.666C161.225 80.478 161.46 79.4367 161.929 78.542C162.399 77.6473 163.007 76.958 163.755 76.474C164.503 75.99 165.288 75.748 166.109 75.748C166.916 75.748 167.539 75.99 167.979 76.474C168.434 76.9433 168.661 77.552 168.661 78.3C168.661 78.916 168.522 79.4367 168.243 79.862C167.979 80.2873 167.627 80.5 167.187 80.5C166.909 80.5 166.681 80.434 166.505 80.302C166.344 80.17 166.263 79.9867 166.263 79.752C166.263 79.6493 166.278 79.532 166.307 79.4C166.337 79.268 166.359 79.1727 166.373 79.114C166.447 78.894 166.483 78.6887 166.483 78.498C166.483 78.3073 166.432 78.1607 166.329 78.058C166.241 77.9553 166.109 77.904 165.933 77.904C165.596 77.904 165.281 78.058 164.987 78.366C164.694 78.6593 164.459 79.0627 164.283 79.576C164.107 80.0893 164.019 80.654 164.019 81.27C164.019 82.9713 164.76 83.822 166.241 83.822C166.843 83.822 167.488 83.624 168.177 83.228C168.881 82.8173 169.571 82.2087 170.245 81.402C170.421 81.1967 170.619 81.094 170.839 81.094C171.03 81.094 171.177 81.182 171.279 81.358C171.397 81.534 171.455 81.776 171.455 82.084C171.455 82.6413 171.316 83.096 171.037 83.448C170.348 84.2987 169.519 84.9587 168.551 85.428C167.598 85.8827 166.674 86.11 165.779 86.11ZM181.293 81.094C181.484 81.094 181.63 81.182 181.733 81.358C181.85 81.534 181.909 81.776 181.909 82.084C181.909 82.6707 181.77 83.1253 181.491 83.448C180.816 84.2253 180.12 84.8633 179.401 85.362C178.697 85.8607 177.89 86.11 176.981 86.11C176.218 86.11 175.683 85.8753 175.375 85.406C175.067 84.9367 174.913 84.2327 174.913 83.294C174.913 82.898 174.95 82.4213 175.023 81.864C173.732 81.864 172.838 81.8493 172.339 81.82C172.31 82.2307 172.295 82.5167 172.295 82.678V83.14C172.28 84.0493 172.258 84.6873 172.229 85.054C172.2 85.4207 172.112 85.692 171.965 85.868C171.818 86.0293 171.576 86.11 171.239 86.11C170.682 86.11 170.286 85.8167 170.051 85.23C169.831 84.6433 169.721 83.7047 169.721 82.414C169.721 80.5073 169.992 78.696 170.535 76.98C170.667 76.5547 170.88 76.2467 171.173 76.056C171.466 75.8507 171.892 75.748 172.449 75.748C172.742 75.748 172.948 75.7847 173.065 75.858C173.182 75.9313 173.241 76.0707 173.241 76.276C173.241 76.5107 173.131 77.0387 172.911 77.86C172.794 78.344 172.684 78.9307 172.581 79.62H175.397C175.544 78.9307 175.756 78.0507 176.035 76.98C176.152 76.54 176.328 76.2247 176.563 76.034C176.812 75.8433 177.179 75.748 177.663 75.748C178 75.748 178.235 75.792 178.367 75.88C178.499 75.9533 178.565 76.1 178.565 76.32C178.565 76.6867 178.382 77.6913 178.015 79.334C177.604 81.2113 177.399 82.37 177.399 82.81C177.399 83.0887 177.458 83.3087 177.575 83.47C177.692 83.6167 177.846 83.69 178.037 83.69C178.33 83.69 178.675 83.514 179.071 83.162C179.482 82.7953 180.024 82.2087 180.699 81.402C180.875 81.1967 181.073 81.094 181.293 81.094ZM191.339 79.246C191.529 79.246 191.676 79.3413 191.779 79.532C191.881 79.7227 191.933 79.9647 191.933 80.258C191.933 80.962 191.72 81.38 191.295 81.512C190.415 81.82 189.447 81.996 188.391 82.04C188.112 83.272 187.562 84.262 186.741 85.01C185.919 85.7433 184.988 86.11 183.947 86.11C183.067 86.11 182.311 85.8973 181.681 85.472C181.065 85.0467 180.595 84.482 180.273 83.778C179.95 83.074 179.788 82.3113 179.788 81.49C179.788 80.3753 180.001 79.3853 180.427 78.52C180.852 77.64 181.439 76.958 182.187 76.474C182.935 75.9753 183.763 75.726 184.673 75.726C185.787 75.726 186.682 76.1147 187.357 76.892C188.046 77.6547 188.449 78.6007 188.567 79.73C189.256 79.686 190.077 79.5393 191.031 79.29C191.148 79.2607 191.251 79.246 191.339 79.246ZM184.123 83.778C184.592 83.778 184.995 83.5873 185.333 83.206C185.685 82.8247 185.919 82.2747 186.037 81.556C185.582 81.248 185.23 80.8447 184.981 80.346C184.746 79.8473 184.629 79.3193 184.629 78.762C184.629 78.5273 184.651 78.2927 184.695 78.058H184.585C183.998 78.058 183.507 78.344 183.111 78.916C182.729 79.4733 182.539 80.2653 182.539 81.292C182.539 82.0987 182.693 82.7147 183.001 83.14C183.323 83.5653 183.697 83.778 184.123 83.778ZM192.873 86.11C192.227 86.11 191.736 85.934 191.399 85.582C191.076 85.23 190.915 84.768 190.915 84.196C190.915 83.536 191.098 83.008 191.465 82.612C191.846 82.216 192.374 82.018 193.049 82.018C193.694 82.018 194.178 82.1793 194.501 82.502C194.838 82.81 195.007 83.272 195.007 83.888C195.007 84.5627 194.816 85.1053 194.435 85.516C194.053 85.912 193.533 86.11 192.873 86.11ZM213.849 75.66C214.847 75.9387 215.617 76.4227 216.159 77.112C216.717 77.7867 216.995 78.6153 216.995 79.598C216.995 80.7567 216.665 81.8347 216.005 82.832C215.345 83.8293 214.407 84.6287 213.189 85.23C211.987 85.8167 210.601 86.11 209.031 86.11C207.169 86.11 205.702 85.7067 204.631 84.9C203.575 84.0933 203.047 82.9713 203.047 81.534C203.047 80.8007 203.179 80.258 203.443 79.906C203.722 79.554 204.14 79.378 204.697 79.378C205.108 79.378 205.431 79.4953 205.665 79.73C205.915 79.95 206.039 80.2727 206.039 80.698C206.039 81.4607 206.135 82.062 206.325 82.502C206.531 82.9273 206.853 83.2427 207.293 83.448C207.748 83.6387 208.379 83.734 209.185 83.734C210.065 83.734 210.85 83.536 211.539 83.14C212.243 82.744 212.786 82.2233 213.167 81.578C213.563 80.9327 213.761 80.2433 213.761 79.51C213.761 78.894 213.615 78.3807 213.321 77.97C213.028 77.5447 212.647 77.2953 212.177 77.222C211.048 77.8673 209.904 78.19 208.745 78.19C208.261 78.19 207.917 78.1093 207.711 77.948C207.506 77.7867 207.403 77.5227 207.403 77.156C207.403 76.628 207.682 76.2247 208.239 75.946C208.811 75.6673 209.706 75.4987 210.923 75.44C212.419 74.5013 213.167 73.2693 213.167 71.744C213.167 71.0987 212.984 70.6 212.617 70.248C212.251 69.8813 211.701 69.698 210.967 69.698C210.278 69.698 209.669 69.808 209.141 70.028C208.613 70.2333 208.203 70.5193 207.909 70.886C207.616 71.238 207.469 71.6193 207.469 72.03C207.469 72.1473 207.484 72.3013 207.513 72.492C207.543 72.6827 207.557 72.8293 207.557 72.932C207.557 73.2987 207.44 73.5773 207.205 73.768C206.985 73.944 206.685 74.032 206.303 74.032C205.746 74.032 205.343 73.834 205.093 73.438C204.844 73.0273 204.719 72.4847 204.719 71.81C204.719 71.0033 204.983 70.2627 205.511 69.588C206.054 68.8987 206.824 68.356 207.821 67.96C208.819 67.5493 209.97 67.344 211.275 67.344C212.962 67.344 214.194 67.6813 214.971 68.356C215.749 69.0307 216.137 69.9547 216.137 71.128C216.137 72.008 215.939 72.844 215.543 73.636C215.162 74.4133 214.597 75.088 213.849 75.66ZM230.033 81.138C230.224 81.138 230.37 81.2333 230.473 81.424C230.59 81.6 230.649 81.8273 230.649 82.106C230.649 82.4433 230.598 82.7073 230.495 82.898C230.392 83.0887 230.231 83.2573 230.011 83.404C228.75 84.2547 227.826 84.8853 227.239 85.296L225.831 86.242C225.274 89.278 224.54 91.6613 223.631 93.392C222.736 95.1373 221.592 96.01 220.199 96.01C219.451 96.01 218.842 95.7753 218.373 95.306C217.904 94.8513 217.669 94.25 217.669 93.502C217.669 92.4607 218.08 91.3387 218.901 90.136C219.722 88.948 221.262 87.4813 223.521 85.736L223.653 84.878C223.404 85.274 223.074 85.582 222.663 85.802C222.267 86.0073 221.871 86.11 221.475 86.11C220.566 86.11 219.84 85.78 219.297 85.12C218.754 84.46 218.483 83.5947 218.483 82.524C218.483 81.3507 218.754 80.2433 219.297 79.202C219.84 78.146 220.558 77.3027 221.453 76.672C222.362 76.0267 223.323 75.704 224.335 75.704C224.658 75.704 224.87 75.77 224.973 75.902C225.09 76.0193 225.186 76.2393 225.259 76.562C225.538 76.5033 225.86 76.474 226.227 76.474C226.594 76.474 226.85 76.5327 226.997 76.65C227.158 76.7527 227.239 76.9653 227.239 77.288C227.239 77.464 227.232 77.6033 227.217 77.706C227.158 78.1607 226.975 79.312 226.667 81.16C226.608 81.512 226.542 81.9007 226.469 82.326C226.41 82.7367 226.344 83.1767 226.271 83.646C227.4 82.766 228.486 81.9887 229.527 81.314C229.718 81.1967 229.886 81.138 230.033 81.138ZM222.267 83.888C222.604 83.888 222.927 83.6827 223.235 83.272C223.543 82.8613 223.763 82.2747 223.895 81.512L224.599 77.75C223.998 77.7647 223.44 77.9993 222.927 78.454C222.414 78.894 222.003 79.4807 221.695 80.214C221.387 80.9473 221.233 81.7247 221.233 82.546C221.233 83.0007 221.321 83.338 221.497 83.558C221.688 83.778 221.944 83.888 222.267 83.888ZM220.441 93.876C220.808 93.876 221.218 93.436 221.673 92.556C222.142 91.676 222.59 90.2753 223.015 88.354C221.886 89.322 221.072 90.1947 220.573 90.972C220.074 91.7493 219.825 92.4313 219.825 93.018C219.825 93.2673 219.869 93.4727 219.957 93.634C220.06 93.7953 220.221 93.876 220.441 93.876ZM240.516 79.246C240.707 79.246 240.854 79.3413 240.956 79.532C241.059 79.7227 241.11 79.9647 241.11 80.258C241.11 80.962 240.898 81.38 240.472 81.512C239.592 81.82 238.624 81.996 237.568 82.04C237.29 83.272 236.74 84.262 235.918 85.01C235.097 85.7433 234.166 86.11 233.124 86.11C232.244 86.11 231.489 85.8973 230.858 85.472C230.242 85.0467 229.773 84.482 229.45 83.778C229.128 83.074 228.966 82.3113 228.966 81.49C228.966 80.3753 229.179 79.3853 229.604 78.52C230.03 77.64 230.616 76.958 231.364 76.474C232.112 75.9753 232.941 75.726 233.85 75.726C234.965 75.726 235.86 76.1147 236.534 76.892C237.224 77.6547 237.627 78.6007 237.744 79.73C238.434 79.686 239.255 79.5393 240.208 79.29C240.326 79.2607 240.428 79.246 240.516 79.246ZM233.3 83.778C233.77 83.778 234.173 83.5873 234.51 83.206C234.862 82.8247 235.097 82.2747 235.214 81.556C234.76 81.248 234.408 80.8447 234.158 80.346C233.924 79.8473 233.806 79.3193 233.806 78.762C233.806 78.5273 233.828 78.2927 233.872 78.058H233.762C233.176 78.058 232.684 78.344 232.288 78.916C231.907 79.4733 231.716 80.2653 231.716 81.292C231.716 82.0987 231.87 82.7147 232.178 83.14C232.501 83.5653 232.875 83.778 233.3 83.778ZM250.97 81.094C251.161 81.094 251.307 81.182 251.41 81.358C251.527 81.534 251.586 81.776 251.586 82.084C251.586 82.6707 251.447 83.1253 251.168 83.448C250.537 84.2253 249.855 84.8633 249.122 85.362C248.403 85.8607 247.582 86.11 246.658 86.11C245.881 86.11 245.25 85.8313 244.766 85.274C243.93 85.8167 243.057 86.0953 242.148 86.11C241.957 88.9407 241.525 91.302 240.85 93.194C240.175 95.1007 239.185 96.054 237.88 96.054C237.088 96.054 236.501 95.768 236.12 95.196C235.739 94.624 235.548 93.832 235.548 92.82C235.548 91.3827 235.878 89.7033 236.538 87.782C237.198 85.8753 238.217 83.7707 239.596 81.468C239.596 79.3267 239.581 77.838 239.552 77.002C239.537 76.5767 239.706 76.2393 240.058 75.99C240.41 75.7407 240.85 75.616 241.378 75.616C241.686 75.616 241.906 75.682 242.038 75.814C242.185 75.9313 242.265 76.1733 242.28 76.54C242.28 76.9067 242.287 77.178 242.302 77.354C242.771 76.7673 243.233 76.3493 243.688 76.1C244.143 75.836 244.627 75.704 245.14 75.704C245.961 75.704 246.629 76.034 247.142 76.694C247.67 77.354 247.934 78.2193 247.934 79.29C247.934 80.0673 247.809 80.8227 247.56 81.556C247.311 82.2893 246.966 82.9567 246.526 83.558C246.834 83.646 247.091 83.69 247.296 83.69C247.78 83.69 248.242 83.514 248.682 83.162C249.122 82.81 249.687 82.2233 250.376 81.402C250.552 81.1967 250.75 81.094 250.97 81.094ZM242.258 83.998C242.786 83.8807 243.27 83.5947 243.71 83.14C244.165 82.6707 244.524 82.0987 244.788 81.424C245.052 80.7347 245.184 80.016 245.184 79.268C245.184 78.828 245.096 78.498 244.92 78.278C244.744 78.0433 244.509 77.926 244.216 77.926C243.688 77.926 243.05 78.4833 242.302 79.598C242.287 80.2433 242.28 81.1893 242.28 82.436C242.28 83.1107 242.273 83.6313 242.258 83.998ZM238.056 93.898C238.452 93.898 238.782 93.0327 239.046 91.302C239.31 89.586 239.479 87.4447 239.552 84.878C238.921 86.3447 238.423 87.7453 238.056 89.08C237.689 90.4147 237.506 91.5367 237.506 92.446C237.506 92.9153 237.565 93.2747 237.682 93.524C237.785 93.7733 237.909 93.898 238.056 93.898ZM261.034 79.246C261.224 79.246 261.371 79.3413 261.474 79.532C261.576 79.7227 261.628 79.9647 261.628 80.258C261.628 80.962 261.415 81.38 260.99 81.512C260.11 81.82 259.142 81.996 258.086 82.04C257.807 83.272 257.257 84.262 256.436 85.01C255.614 85.7433 254.683 86.11 253.642 86.11C252.762 86.11 252.006 85.8973 251.376 85.472C250.76 85.0467 250.29 84.482 249.968 83.778C249.645 83.074 249.484 82.3113 249.484 81.49C249.484 80.3753 249.696 79.3853 250.122 78.52C250.547 77.64 251.134 76.958 251.882 76.474C252.63 75.9753 253.458 75.726 254.368 75.726C255.482 75.726 256.377 76.1147 257.052 76.892C257.741 77.6547 258.144 78.6007 258.262 79.73C258.951 79.686 259.772 79.5393 260.726 79.29C260.843 79.2607 260.946 79.246 261.034 79.246ZM253.818 83.778C254.287 83.778 254.69 83.5873 255.028 83.206C255.38 82.8247 255.614 82.2747 255.732 81.556C255.277 81.248 254.925 80.8447 254.676 80.346C254.441 79.8473 254.324 79.3193 254.324 78.762C254.324 78.5273 254.346 78.2927 254.39 78.058H254.28C253.693 78.058 253.202 78.344 252.806 78.916C252.424 79.4733 252.234 80.2653 252.234 81.292C252.234 82.0987 252.388 82.7147 252.696 83.14C253.018 83.5653 253.392 83.778 253.818 83.778ZM271.444 79.246C271.634 79.246 271.781 79.3413 271.884 79.532C271.986 79.7227 272.038 79.9647 272.038 80.258C272.038 80.6247 271.986 80.9107 271.884 81.116C271.781 81.3067 271.62 81.4387 271.4 81.512C270.52 81.82 269.552 81.996 268.496 82.04C268.202 83.2573 267.645 84.24 266.824 84.988C266.017 85.736 265.122 86.11 264.14 86.11C262.658 86.11 261.58 85.5453 260.906 84.416C260.231 83.2867 259.894 81.6513 259.894 79.51C259.894 77.618 260.128 75.5647 260.598 73.35C261.067 71.1207 261.749 69.2287 262.644 67.674C263.553 66.1047 264.631 65.32 265.878 65.32C266.552 65.32 267.095 65.6133 267.506 66.2C267.916 66.772 268.122 67.52 268.122 68.444C268.122 69.6467 267.894 70.842 267.44 72.03C266.985 73.218 266.23 74.4647 265.174 75.77C266.156 75.8433 266.956 76.254 267.572 77.002C268.188 77.7353 268.554 78.6447 268.672 79.73C269.361 79.686 270.182 79.5393 271.136 79.29C271.224 79.2607 271.326 79.246 271.444 79.246ZM265.372 67.498C265.078 67.498 264.756 67.938 264.404 68.818C264.066 69.6833 263.751 70.864 263.458 72.36C263.164 73.856 262.944 75.4913 262.798 77.266C263.766 75.4913 264.536 73.9293 265.108 72.58C265.694 71.216 265.988 70.006 265.988 68.95C265.988 68.4807 265.929 68.1213 265.812 67.872C265.709 67.6227 265.562 67.498 265.372 67.498ZM264.228 83.778C264.682 83.778 265.086 83.5873 265.438 83.206C265.79 82.8247 266.024 82.2747 266.142 81.556C265.687 81.248 265.335 80.8447 265.086 80.346C264.851 79.8473 264.734 79.3193 264.734 78.762C264.734 78.5567 264.763 78.278 264.822 77.926H264.756C264.154 77.926 263.648 78.2267 263.238 78.828C262.842 79.4147 262.644 80.2067 262.644 81.204C262.644 82.04 262.798 82.678 263.106 83.118C263.428 83.558 263.802 83.778 264.228 83.778ZM281.358 79.246C281.549 79.246 281.695 79.3413 281.798 79.532C281.901 79.7227 281.952 79.9647 281.952 80.258C281.952 80.962 281.739 81.38 281.314 81.512C280.434 81.82 279.466 81.996 278.41 82.04C278.131 83.272 277.581 84.262 276.76 85.01C275.939 85.7433 275.007 86.11 273.966 86.11C273.086 86.11 272.331 85.8973 271.7 85.472C271.084 85.0467 270.615 84.482 270.292 83.778C269.969 83.074 269.808 82.3113 269.808 81.49C269.808 80.3753 270.021 79.3853 270.446 78.52C270.871 77.64 271.458 76.958 272.206 76.474C272.954 75.9753 273.783 75.726 274.692 75.726C275.807 75.726 276.701 76.1147 277.376 76.892C278.065 77.6547 278.469 78.6007 278.586 79.73C279.275 79.686 280.097 79.5393 281.05 79.29C281.167 79.2607 281.27 79.246 281.358 79.246ZM274.142 83.778C274.611 83.778 275.015 83.5873 275.352 83.206C275.704 82.8247 275.939 82.2747 276.056 81.556C275.601 81.248 275.249 80.8447 275 80.346C274.765 79.8473 274.648 79.3193 274.648 78.762C274.648 78.5273 274.67 78.2927 274.714 78.058H274.604C274.017 78.058 273.526 78.344 273.13 78.916C272.749 79.4733 272.558 80.2653 272.558 81.292C272.558 82.0987 272.712 82.7147 273.02 83.14C273.343 83.5653 273.717 83.778 274.142 83.778ZM282.892 86.11C282.247 86.11 281.756 85.934 281.418 85.582C281.096 85.23 280.934 84.768 280.934 84.196C280.934 83.536 281.118 83.008 281.484 82.612C281.866 82.216 282.394 82.018 283.068 82.018C283.714 82.018 284.198 82.1793 284.52 82.502C284.858 82.81 285.026 83.272 285.026 83.888C285.026 84.5627 284.836 85.1053 284.454 85.516C284.073 85.912 283.552 86.11 282.892 86.11ZM313.637 81.094C313.828 81.094 313.974 81.182 314.077 81.358C314.194 81.534 314.253 81.776 314.253 82.084C314.253 82.656 314.114 83.1107 313.835 83.448C313.087 84.372 312.339 85.0467 311.591 85.472C310.858 85.8973 310.073 86.11 309.237 86.11C307.99 86.11 307.022 85.7433 306.333 85.01C305.644 84.262 305.299 83.2647 305.299 82.018C305.299 81.2407 305.475 79.9867 305.827 78.256L306.641 74.23C307.052 72.206 307.286 70.82 307.345 70.072C306.377 70.028 305.233 70.006 303.913 70.006C303.121 70.006 302.549 70.0133 302.197 70.028C301.669 72.6973 301.17 75.4033 300.701 78.146C300.54 79.1433 300.371 80.302 300.195 81.622C300.019 82.9273 299.902 83.9833 299.843 84.79C299.814 85.2153 299.638 85.5453 299.315 85.78C298.992 86 298.604 86.11 298.149 86.11C297.665 86.11 297.291 85.9927 297.027 85.758C296.763 85.5233 296.631 85.2153 296.631 84.834C296.631 84.482 296.682 83.9027 296.785 83.096C296.902 82.2747 297.034 81.4167 297.181 80.522C297.342 79.6273 297.467 78.85 297.555 78.19C297.746 76.9727 297.951 75.7847 298.171 74.626C298.391 73.4673 298.611 72.3527 298.831 71.282L299.051 70.226C297.687 70.3873 296.697 70.6513 296.081 71.018C295.48 71.3847 295.179 71.8833 295.179 72.514C295.179 73.0273 295.304 73.4747 295.553 73.856C295.626 73.9587 295.663 74.0907 295.663 74.252C295.663 74.5453 295.502 74.8167 295.179 75.066C294.871 75.3007 294.541 75.418 294.189 75.418C293.94 75.418 293.734 75.3447 293.573 75.198C293.28 74.9487 293.038 74.5967 292.847 74.142C292.656 73.6727 292.561 73.1447 292.561 72.558C292.561 71.3113 292.994 70.314 293.859 69.566C294.724 68.8033 296.03 68.246 297.775 67.894C299.535 67.542 301.801 67.366 304.573 67.366C307.448 67.366 310.264 67.586 313.021 68.026C313.476 68.0993 313.798 68.2533 313.989 68.488C314.194 68.708 314.297 68.9647 314.297 69.258C314.297 69.698 314.187 70.0353 313.967 70.27C313.747 70.49 313.417 70.6 312.977 70.6C312.816 70.6 312.691 70.5927 312.603 70.578L310.381 70.292C310.322 71.3187 310.168 72.3747 309.919 73.46L308.577 79.752C308.43 80.4853 308.357 81.116 308.357 81.644C308.357 82.26 308.496 82.722 308.775 83.03C309.068 83.338 309.472 83.492 309.985 83.492C310.469 83.492 310.938 83.3307 311.393 83.008C311.862 82.6853 312.412 82.15 313.043 81.402C313.219 81.1967 313.417 81.094 313.637 81.094ZM324.21 81.094C324.401 81.094 324.548 81.182 324.65 81.358C324.768 81.534 324.826 81.776 324.826 82.084C324.826 82.6707 324.687 83.1253 324.408 83.448C323.778 84.2253 323.096 84.8633 322.362 85.362C321.644 85.8607 320.822 86.11 319.898 86.11C319.121 86.11 318.49 85.8313 318.006 85.274C317.17 85.8167 316.298 86.0953 315.388 86.11C315.198 88.9407 314.765 91.302 314.09 93.194C313.416 95.1007 312.426 96.054 311.12 96.054C310.328 96.054 309.742 95.768 309.36 95.196C308.979 94.624 308.788 93.832 308.788 92.82C308.788 91.3827 309.118 89.7033 309.778 87.782C310.438 85.8753 311.458 83.7707 312.836 81.468C312.836 79.3267 312.822 77.838 312.792 77.002C312.778 76.5767 312.946 76.2393 313.298 75.99C313.65 75.7407 314.09 75.616 314.618 75.616C314.926 75.616 315.146 75.682 315.278 75.814C315.425 75.9313 315.506 76.1733 315.52 76.54C315.52 76.9067 315.528 77.178 315.542 77.354C316.012 76.7673 316.474 76.3493 316.928 76.1C317.383 75.836 317.867 75.704 318.38 75.704C319.202 75.704 319.869 76.034 320.382 76.694C320.91 77.354 321.174 78.2193 321.174 79.29C321.174 80.0673 321.05 80.8227 320.8 81.556C320.551 82.2893 320.206 82.9567 319.766 83.558C320.074 83.646 320.331 83.69 320.536 83.69C321.02 83.69 321.482 83.514 321.922 83.162C322.362 82.81 322.927 82.2233 323.616 81.402C323.792 81.1967 323.99 81.094 324.21 81.094ZM315.498 83.998C316.026 83.8807 316.51 83.5947 316.95 83.14C317.405 82.6707 317.764 82.0987 318.028 81.424C318.292 80.7347 318.424 80.016 318.424 79.268C318.424 78.828 318.336 78.498 318.16 78.278C317.984 78.0433 317.75 77.926 317.456 77.926C316.928 77.926 316.29 78.4833 315.542 79.598C315.528 80.2433 315.52 81.1893 315.52 82.436C315.52 83.1107 315.513 83.6313 315.498 83.998ZM311.296 93.898C311.692 93.898 312.022 93.0327 312.286 91.302C312.55 89.586 312.719 87.4447 312.792 84.878C312.162 86.3447 311.663 87.7453 311.296 89.08C310.93 90.4147 310.746 91.5367 310.746 92.446C310.746 92.9153 310.805 93.2747 310.922 93.524C311.025 93.7733 311.15 93.898 311.296 93.898ZM334.274 79.246C334.465 79.246 334.611 79.3413 334.714 79.532C334.817 79.7227 334.868 79.9647 334.868 80.258C334.868 80.962 334.655 81.38 334.23 81.512C333.35 81.82 332.382 81.996 331.326 82.04C331.047 83.272 330.497 84.262 329.676 85.01C328.855 85.7433 327.923 86.11 326.882 86.11C326.002 86.11 325.247 85.8973 324.616 85.472C324 85.0467 323.531 84.482 323.208 83.778C322.885 83.074 322.724 82.3113 322.724 81.49C322.724 80.3753 322.937 79.3853 323.362 78.52C323.787 77.64 324.374 76.958 325.122 76.474C325.87 75.9753 326.699 75.726 327.608 75.726C328.723 75.726 329.617 76.1147 330.292 76.892C330.981 77.6547 331.385 78.6007 331.502 79.73C332.191 79.686 333.013 79.5393 333.966 79.29C334.083 79.2607 334.186 79.246 334.274 79.246ZM327.058 83.778C327.527 83.778 327.931 83.5873 328.268 83.206C328.62 82.8247 328.855 82.2747 328.972 81.556C328.517 81.248 328.165 80.8447 327.916 80.346C327.681 79.8473 327.564 79.3193 327.564 78.762C327.564 78.5273 327.586 78.2927 327.63 78.058H327.52C326.933 78.058 326.442 78.344 326.046 78.916C325.665 79.4733 325.474 80.2653 325.474 81.292C325.474 82.0987 325.628 82.7147 325.936 83.14C326.259 83.5653 326.633 83.778 327.058 83.778ZM337.182 86.11C335.744 86.11 334.622 85.7067 333.816 84.9C333.024 84.0787 332.628 83.0007 332.628 81.666C332.628 80.478 332.862 79.4367 333.332 78.542C333.801 77.6473 334.41 76.958 335.158 76.474C335.906 75.99 336.69 75.748 337.512 75.748C338.318 75.748 338.942 75.99 339.382 76.474C339.836 76.9433 340.064 77.552 340.064 78.3C340.064 78.916 339.924 79.4367 339.646 79.862C339.382 80.2873 339.03 80.5 338.59 80.5C338.311 80.5 338.084 80.434 337.908 80.302C337.746 80.17 337.666 79.9867 337.666 79.752C337.666 79.6493 337.68 79.532 337.71 79.4C337.739 79.268 337.761 79.1727 337.776 79.114C337.849 78.894 337.886 78.6887 337.886 78.498C337.886 78.3073 337.834 78.1607 337.732 78.058C337.644 77.9553 337.512 77.904 337.336 77.904C336.998 77.904 336.683 78.058 336.39 78.366C336.096 78.6593 335.862 79.0627 335.686 79.576C335.51 80.0893 335.422 80.654 335.422 81.27C335.422 82.9713 336.162 83.822 337.644 83.822C338.245 83.822 338.89 83.624 339.58 83.228C340.284 82.8173 340.973 82.2087 341.648 81.402C341.824 81.1967 342.022 81.094 342.242 81.094C342.432 81.094 342.579 81.182 342.682 81.358C342.799 81.534 342.858 81.776 342.858 82.084C342.858 82.6413 342.718 83.096 342.44 83.448C341.75 84.2987 340.922 84.9587 339.954 85.428C339 85.8827 338.076 86.11 337.182 86.11ZM342.641 86.11C342.084 86.11 341.688 85.8167 341.453 85.23C341.233 84.6433 341.123 83.7047 341.123 82.414C341.123 80.5073 341.395 78.696 341.937 76.98C342.069 76.5547 342.282 76.2467 342.575 76.056C342.883 75.8507 343.309 75.748 343.851 75.748C344.145 75.748 344.35 75.7847 344.467 75.858C344.585 75.9313 344.643 76.0707 344.643 76.276C344.643 76.5107 344.533 77.0387 344.313 77.86C344.167 78.4467 344.049 78.96 343.961 79.4C343.873 79.8253 343.8 80.3607 343.741 81.006C344.137 79.862 344.607 78.894 345.149 78.102C345.707 77.31 346.271 76.7233 346.843 76.342C347.43 75.946 347.98 75.748 348.493 75.748C349.007 75.748 349.366 75.8653 349.571 76.1C349.791 76.3347 349.901 76.694 349.901 77.178C349.901 77.6473 349.762 78.498 349.483 79.73C349.366 80.258 349.285 80.654 349.241 80.918C349.975 79.114 350.789 77.8013 351.683 76.98C352.578 76.1587 353.414 75.748 354.191 75.748C355.145 75.748 355.621 76.2247 355.621 77.178C355.621 77.75 355.46 78.784 355.137 80.28C354.859 81.556 354.719 82.3993 354.719 82.81C354.719 83.3967 354.932 83.69 355.357 83.69C355.651 83.69 355.995 83.514 356.391 83.162C356.802 82.7953 357.345 82.2087 358.019 81.402C358.195 81.1967 358.393 81.094 358.613 81.094C358.804 81.094 358.951 81.182 359.053 81.358C359.171 81.534 359.229 81.776 359.229 82.084C359.229 82.6707 359.09 83.1253 358.811 83.448C358.181 84.2253 357.499 84.8633 356.765 85.362C356.047 85.8607 355.225 86.11 354.301 86.11C353.553 86.11 352.989 85.8973 352.607 85.472C352.226 85.032 352.035 84.4013 352.035 83.58C352.035 83.1693 352.138 82.436 352.343 81.38C352.534 80.456 352.629 79.818 352.629 79.466C352.629 79.2313 352.549 79.114 352.387 79.114C352.197 79.114 351.925 79.3633 351.573 79.862C351.221 80.346 350.869 80.9913 350.517 81.798C350.165 82.6047 349.879 83.4553 349.659 84.35C349.498 85.054 349.307 85.5233 349.087 85.758C348.882 85.9927 348.545 86.11 348.075 86.11C347.591 86.11 347.225 85.8827 346.975 85.428C346.741 84.9587 346.623 84.394 346.623 83.734C346.623 83.1767 346.697 82.37 346.843 81.314C346.961 80.3753 347.019 79.7593 347.019 79.466C347.019 79.2313 346.939 79.114 346.777 79.114C346.557 79.114 346.279 79.378 345.941 79.906C345.604 80.434 345.274 81.1087 344.951 81.93C344.643 82.7513 344.394 83.558 344.203 84.35C344.042 85.0393 343.851 85.5087 343.631 85.758C343.426 85.9927 343.096 86.11 342.641 86.11ZM368.671 79.246C368.861 79.246 369.008 79.3413 369.111 79.532C369.213 79.7227 369.265 79.9647 369.265 80.258C369.265 80.962 369.052 81.38 368.627 81.512C367.747 81.82 366.779 81.996 365.723 82.04C365.444 83.272 364.894 84.262 364.073 85.01C363.251 85.7433 362.32 86.11 361.279 86.11C360.399 86.11 359.643 85.8973 359.013 85.472C358.397 85.0467 357.927 84.482 357.605 83.778C357.282 83.074 357.121 82.3113 357.121 81.49C357.121 80.3753 357.333 79.3853 357.759 78.52C358.184 77.64 358.771 76.958 359.519 76.474C360.267 75.9753 361.095 75.726 362.005 75.726C363.119 75.726 364.014 76.1147 364.689 76.892C365.378 77.6547 365.781 78.6007 365.899 79.73C366.588 79.686 367.409 79.5393 368.363 79.29C368.48 79.2607 368.583 79.246 368.671 79.246ZM361.455 83.778C361.924 83.778 362.327 83.5873 362.665 83.206C363.017 82.8247 363.251 82.2747 363.369 81.556C362.914 81.248 362.562 80.8447 362.313 80.346C362.078 79.8473 361.961 79.3193 361.961 78.762C361.961 78.5273 361.983 78.2927 362.027 78.058H361.917C361.33 78.058 360.839 78.344 360.443 78.916C360.061 79.4733 359.871 80.2653 359.871 81.292C359.871 82.0987 360.025 82.7147 360.333 83.14C360.655 83.5653 361.029 83.778 361.455 83.778ZM370.205 86.11C369.56 86.11 369.068 85.934 368.731 85.582C368.408 85.23 368.247 84.768 368.247 84.196C368.247 83.536 368.43 83.008 368.797 82.612C369.178 82.216 369.706 82.018 370.381 82.018C371.026 82.018 371.51 82.1793 371.833 82.502C372.17 82.81 372.339 83.272 372.339 83.888C372.339 84.5627 372.148 85.1053 371.767 85.516C371.386 85.912 370.865 86.11 370.205 86.11Z" fill="#EA9C27"/>
    <path d="M105.091 56.3992C105.091 83.2341 83.3372 104.988 56.5024 104.988C29.6675 104.988 7.91351 83.2341 7.91351 56.3992C7.91351 29.5643 29.6675 7.81038 56.5024 7.81038C83.3372 7.81038 105.091 29.5643 105.091 56.3992Z" fill="#EA9C27"/>
    <mask id="mask0_169_2025" style="mask-type:alpha" maskUnits="userSpaceOnUse" x="8" y="8" width="98" height="98">
        <ellipse cx="57.2445" cy="56.9825" rx="48.7117" ry="48.3778" transform="rotate(11.2965 57.2445 56.9825)" fill="white"/>
    </mask>
    <g mask="url(#mask0_169_2025)">
        <g filter="url(#filter0_i_169_2025)">
            <path d="M97.5679 84.5359C77.9814 109.716 53.7246 114.021 41.3194 117.501C34.3114 101.908 35.6012 81.8858 55.1877 56.7062C74.7743 31.5266 91.555 25.9695 106.068 26.0359C109.562 35.9543 117.154 59.3563 97.5679 84.5359Z" fill="#2FC822"/>
            <g filter="url(#filter1_d_169_2025)">
                <path d="M41.926 82.5543L57.7962 95.3586L79.0036 102.175M39.7487 94.2149L49.2475 106.99L69.7664 109.56" stroke="#0C9500" stroke-width="0.5"/>
            </g>
            <g filter="url(#filter2_d_169_2025)">
                <path d="M106.958 26.9751L44.2595 114.04" stroke="#0C9500" stroke-width="0.5"/>
            </g>
            <g filter="url(#filter3_d_169_2025)">
                <path d="M110.784 41.8461L95.2027 43.1893L89.6024 29.3711M110.732 53.1627L88.0779 53.0589L77.1827 36.0336M108.555 64.8233L80.9532 62.9286L65.8071 46.5911M104.26 75.0596L73.4728 73.1502L56.9109 56.8063M96.062 87.3999L67.0609 81.9622L51.2198 62.7923M87.8851 95.1428L62.7825 88.662L46.2173 73.0253" stroke="#0C9500" stroke-width="0.5"/>
            </g>
        </g>
        <g filter="url(#filter4_d_169_2025)">
            <rect x="33.2534" y="87.0016" width="8.88633" height="22.5576" fill="#EEEDE7"/>
            <path d="M23 68.8111C23 67.1542 24.3431 65.8111 26 65.8111H49.3933C51.0501 65.8111 52.3933 67.1542 52.3933 68.8111V77.7751C52.3933 78.6426 52.0177 79.4676 51.3636 80.0374L42.6451 87.6309C42.0989 88.1066 41.399 88.3687 40.6747 88.3687H34.7185C33.9942 88.3687 33.2944 88.1066 32.7482 87.6309L24.0297 80.0374C23.3755 79.4676 23 78.6426 23 77.7751V68.8111Z" fill="#EEEDE7"/>
            <path d="M23.9948 35.1514C24.0132 34.5092 24.4249 33.9446 25.0307 33.7308V33.7308C26.0415 33.3741 27.1014 34.1239 27.1014 35.1958V67.8911C27.1014 69.0075 26.1964 69.9125 25.08 69.9125V69.9125C23.941 69.9125 23.0269 68.9718 23.0595 67.8333L23.9948 35.1514Z" fill="#EEEDE7"/>
            <path d="M51.3992 35.1376C51.3803 34.4923 50.9645 33.9258 50.3545 33.7145V33.7145C49.345 33.3648 48.2919 34.1145 48.2919 35.1829V67.2081C48.2919 68.3241 49.1966 69.2289 50.3127 69.2289V69.2289C51.4518 69.2289 52.3658 68.2878 52.3326 67.1492L51.3992 35.1376Z" fill="#EEEDE7"/>
            <rect x="31.8864" y="33" width="3.41782" height="34.8618" rx="1.70891" fill="#EEEDE7"/>
            <rect x="40.0891" y="33" width="3.41782" height="34.8618" rx="1.70891" fill="#EEEDE7"/>
        </g>
    </g>
    <defs>
        <filter id="filter0_i_169_2025" x="37.4391" y="26.0353" width="73.3661" height="95.4659" filterUnits="userSpaceOnUse" color-interpolation-filters="sRGB">
            <feFlood flood-opacity="0" result="BackgroundImageFix"/>
            <feBlend mode="normal" in="SourceGraphic" in2="BackgroundImageFix" result="shape"/>
            <feColorMatrix in="SourceAlpha" type="matrix" values="0 0 0 0 0 0 0 0 0 0 0 0 0 0 0 0 0 0 127 0" result="hardAlpha"/>
            <feOffset dy="4"/>
            <feGaussianBlur stdDeviation="2"/>
            <feComposite in2="hardAlpha" operator="arithmetic" k2="-1" k3="1"/>
            <feColorMatrix type="matrix" values="0 0 0 0 0 0 0 0 0 0 0 0 0 0 0 0 0 0 0.25 0"/>
            <feBlend mode="normal" in2="shape" result="effect1_innerShadow_169_2025"/>
        </filter>
        <filter id="filter1_d_169_2025" x="35.5481" y="82.3598" width="47.532" height="35.4479" filterUnits="userSpaceOnUse" color-interpolation-filters="sRGB">
            <feFlood flood-opacity="0" result="BackgroundImageFix"/>
            <feColorMatrix in="SourceAlpha" type="matrix" values="0 0 0 0 0 0 0 0 0 0 0 0 0 0 0 0 0 0 127 0" result="hardAlpha"/>
            <feOffset dy="4"/>
            <feGaussianBlur stdDeviation="2"/>
            <feComposite in2="hardAlpha" operator="out"/>
            <feColorMatrix type="matrix" values="0 0 0 0 0 0 0 0 0 0 0 0 0 0 0 0 0 0 0.25 0"/>
            <feBlend mode="normal" in2="BackgroundImageFix" result="effect1_dropShadow_169_2025"/>
            <feBlend mode="normal" in="SourceGraphic" in2="effect1_dropShadow_169_2025" result="shape"/>
        </filter>
        <filter id="filter2_d_169_2025" x="40.0566" y="26.829" width="71.1045" height="95.3573" filterUnits="userSpaceOnUse" color-interpolation-filters="sRGB">
            <feFlood flood-opacity="0" result="BackgroundImageFix"/>
            <feColorMatrix in="SourceAlpha" type="matrix" values="0 0 0 0 0 0 0 0 0 0 0 0 0 0 0 0 0 0 127 0" result="hardAlpha"/>
            <feOffset dy="4"/>
            <feGaussianBlur stdDeviation="2"/>
            <feComposite in2="hardAlpha" operator="out"/>
            <feColorMatrix type="matrix" values="0 0 0 0 0 0 0 0 0 0 0 0 0 0 0 0 0 0 0.25 0"/>
            <feBlend mode="normal" in2="BackgroundImageFix" result="effect1_dropShadow_169_2025"/>
            <feBlend mode="normal" in="SourceGraphic" in2="effect1_dropShadow_169_2025" result="shape"/>
        </filter>
        <filter id="filter3_d_169_2025" x="42.0457" y="29.2772" width="72.7596" height="74.1076" filterUnits="userSpaceOnUse" color-interpolation-filters="sRGB">
            <feFlood flood-opacity="0" result="BackgroundImageFix"/>
            <feColorMatrix in="SourceAlpha" type="matrix" values="0 0 0 0 0 0 0 0 0 0 0 0 0 0 0 0 0 0 127 0" result="hardAlpha"/>
            <feOffset dy="4"/>
            <feGaussianBlur stdDeviation="2"/>
            <feComposite in2="hardAlpha" operator="out"/>
            <feColorMatrix type="matrix" values="0 0 0 0 0 0 0 0 0 0 0 0 0 0 0 0 0 0 0.25 0"/>
            <feBlend mode="normal" in2="BackgroundImageFix" result="effect1_dropShadow_169_2025"/>
            <feBlend mode="normal" in="SourceGraphic" in2="effect1_dropShadow_169_2025" result="shape"/>
        </filter>
        <filter id="filter4_d_169_2025" x="19" y="33" width="37.3932" height="84.5592" filterUnits="userSpaceOnUse" color-interpolation-filters="sRGB">
            <feFlood flood-opacity="0" result="BackgroundImageFix"/>
            <feColorMatrix in="SourceAlpha" type="matrix" values="0 0 0 0 0 0 0 0 0 0 0 0 0 0 0 0 0 0 127 0" result="hardAlpha"/>
            <feOffset dy="4"/>
            <feGaussianBlur stdDeviation="2"/>
            <feComposite in2="hardAlpha" operator="out"/>
            <feColorMatrix type="matrix" values="0 0 0 0 0 0 0 0 0 0 0 0 0 0 0 0 0 0 0.25 0"/>
            <feBlend mode="normal" in2="BackgroundImageFix" result="effect1_dropShadow_169_2025"/>
            <feBlend mode="normal" in="SourceGraphic" in2="effect1_dropShadow_169_2025" result="shape"/>
        </filter>
    </defs>
</svg>
