<svg width="252" height="182" viewBox="0 0 252 182" fill="none" xmlns="http://www.w3.org/2000/svg">
    <path d="M55.212 147.408C53.376 147.408 51.6647 147.113 50.078 146.524C48.514 145.912 47.154 145.051 45.998 143.94C44.842 142.829 43.9353 141.526 43.278 140.03C42.6433 138.534 42.326 136.891 42.326 135.1C42.326 133.309 42.6433 131.666 43.278 130.17C43.9353 128.674 44.842 127.371 45.998 126.26C47.1767 125.149 48.548 124.299 50.112 123.71C51.676 123.098 53.3873 122.792 55.246 122.792C57.3087 122.792 59.1673 123.155 60.822 123.88C62.4993 124.583 63.9047 125.625 65.038 127.008L61.502 130.272C60.686 129.343 59.7793 128.651 58.782 128.198C57.7847 127.722 56.6967 127.484 55.518 127.484C54.4073 127.484 53.3873 127.665 52.458 128.028C51.5287 128.391 50.724 128.912 50.044 129.592C49.364 130.272 48.8313 131.077 48.446 132.006C48.0833 132.935 47.902 133.967 47.902 135.1C47.902 136.233 48.0833 137.265 48.446 138.194C48.8313 139.123 49.364 139.928 50.044 140.608C50.724 141.288 51.5287 141.809 52.458 142.172C53.3873 142.535 54.4073 142.716 55.518 142.716C56.6967 142.716 57.7847 142.489 58.782 142.036C59.7793 141.56 60.686 140.846 61.502 139.894L65.038 143.158C63.9047 144.541 62.4993 145.595 60.822 146.32C59.1673 147.045 57.2973 147.408 55.212 147.408ZM76.4567 147.272C74.5074 147.272 72.7734 146.864 71.2547 146.048C69.7587 145.232 68.5687 144.121 67.6847 142.716C66.8234 141.288 66.3927 139.667 66.3927 137.854C66.3927 136.018 66.8234 134.397 67.6847 132.992C68.5687 131.564 69.7587 130.453 71.2547 129.66C72.7734 128.844 74.5074 128.436 76.4567 128.436C78.3834 128.436 80.106 128.844 81.6247 129.66C83.1434 130.453 84.3334 131.553 85.1947 132.958C86.056 134.363 86.4867 135.995 86.4867 137.854C86.4867 139.667 86.056 141.288 85.1947 142.716C84.3334 144.121 83.1434 145.232 81.6247 146.048C80.106 146.864 78.3834 147.272 76.4567 147.272ZM76.4567 142.92C77.3407 142.92 78.134 142.716 78.8367 142.308C79.5394 141.9 80.0947 141.322 80.5027 140.574C80.9107 139.803 81.1147 138.897 81.1147 137.854C81.1147 136.789 80.9107 135.882 80.5027 135.134C80.0947 134.386 79.5394 133.808 78.8367 133.4C78.134 132.992 77.3407 132.788 76.4567 132.788C75.5727 132.788 74.7794 132.992 74.0767 133.4C73.374 133.808 72.8074 134.386 72.3767 135.134C71.9687 135.882 71.7647 136.789 71.7647 137.854C71.7647 138.897 71.9687 139.803 72.3767 140.574C72.8074 141.322 73.374 141.9 74.0767 142.308C74.7794 142.716 75.5727 142.92 76.4567 142.92ZM98.736 147.272C96.7867 147.272 95.0527 146.864 93.534 146.048C92.038 145.232 90.848 144.121 89.964 142.716C89.1027 141.288 88.672 139.667 88.672 137.854C88.672 136.018 89.1027 134.397 89.964 132.992C90.848 131.564 92.038 130.453 93.534 129.66C95.0527 128.844 96.7867 128.436 98.736 128.436C100.663 128.436 102.385 128.844 103.904 129.66C105.423 130.453 106.613 131.553 107.474 132.958C108.335 134.363 108.766 135.995 108.766 137.854C108.766 139.667 108.335 141.288 107.474 142.716C106.613 144.121 105.423 145.232 103.904 146.048C102.385 146.864 100.663 147.272 98.736 147.272ZM98.736 142.92C99.62 142.92 100.413 142.716 101.116 142.308C101.819 141.9 102.374 141.322 102.782 140.574C103.19 139.803 103.394 138.897 103.394 137.854C103.394 136.789 103.19 135.882 102.782 135.134C102.374 134.386 101.819 133.808 101.116 133.4C100.413 132.992 99.62 132.788 98.736 132.788C97.852 132.788 97.0587 132.992 96.356 133.4C95.6533 133.808 95.0867 134.386 94.656 135.134C94.248 135.882 94.044 136.789 94.044 137.854C94.044 138.897 94.248 139.803 94.656 140.574C95.0867 141.322 95.6533 141.9 96.356 142.308C97.0587 142.716 97.852 142.92 98.736 142.92ZM116.697 143.26L116.833 136.8L125.367 128.708H131.691L123.497 137.038L120.743 139.282L116.697 143.26ZM112.311 147V121.772H117.615V147H112.311ZM125.945 147L119.757 139.316L123.089 135.202L132.371 147H125.945ZM140.677 147L132.891 123.2H138.603L145.369 144.28H142.513L149.585 123.2H154.685L161.485 144.28H158.731L165.667 123.2H170.937L163.151 147H157.235L151.217 128.504H152.781L146.593 147H140.677ZM181.354 147.272C179.269 147.272 177.433 146.864 175.846 146.048C174.282 145.232 173.069 144.121 172.208 142.716C171.347 141.288 170.916 139.667 170.916 137.854C170.916 136.018 171.335 134.397 172.174 132.992C173.035 131.564 174.203 130.453 175.676 129.66C177.149 128.844 178.815 128.436 180.674 128.436C182.465 128.436 184.074 128.821 185.502 129.592C186.953 130.34 188.097 131.428 188.936 132.856C189.775 134.261 190.194 135.95 190.194 137.922C190.194 138.126 190.183 138.364 190.16 138.636C190.137 138.885 190.115 139.123 190.092 139.35H175.234V136.256H187.304L185.264 137.174C185.264 136.222 185.071 135.395 184.686 134.692C184.301 133.989 183.768 133.445 183.088 133.06C182.408 132.652 181.615 132.448 180.708 132.448C179.801 132.448 178.997 132.652 178.294 133.06C177.614 133.445 177.081 134.001 176.696 134.726C176.311 135.429 176.118 136.267 176.118 137.242V138.058C176.118 139.055 176.333 139.939 176.764 140.71C177.217 141.458 177.841 142.036 178.634 142.444C179.45 142.829 180.402 143.022 181.49 143.022C182.465 143.022 183.315 142.875 184.04 142.58C184.788 142.285 185.468 141.843 186.08 141.254L188.902 144.314C188.063 145.266 187.009 146.003 185.74 146.524C184.471 147.023 183.009 147.272 181.354 147.272ZM193.725 147V121.772H199.029V147H193.725ZM203.952 147V121.772H209.256V147H203.952Z" fill="#2FC822"/>
    <path d="M19.096 156.92C19.096 158.167 18.656 159.245 17.776 160.154C16.896 161.049 15.6127 161.694 13.926 162.09C14.8353 162.339 15.5247 162.75 15.994 163.322C16.4633 163.879 16.698 164.525 16.698 165.258C16.698 166.417 16.3313 167.421 15.598 168.272C14.8793 169.123 13.8233 169.783 12.43 170.252C11.0367 170.707 9.35733 170.934 7.392 170.934C6.65867 170.934 6.072 170.912 5.632 170.868C5.61733 171.279 5.44133 171.587 5.104 171.792C4.76667 171.997 4.334 172.1 3.806 172.1C3.278 172.1 2.91133 171.983 2.706 171.748C2.51533 171.513 2.43467 171.169 2.464 170.714C2.596 168.661 2.85267 166.512 3.234 164.268C3.61533 162.009 4.09933 159.831 4.686 157.734C4.78867 157.367 4.994 157.111 5.302 156.964C5.61 156.817 6.01333 156.744 6.512 156.744C7.40667 156.744 7.854 156.993 7.854 157.492C7.854 157.697 7.81 157.932 7.722 158.196C7.34067 159.34 6.95933 160.895 6.578 162.86C6.19667 164.811 5.92533 166.673 5.764 168.448C6.468 168.507 7.04 168.536 7.48 168.536C9.53333 168.536 11.0367 168.243 11.99 167.656C12.958 167.055 13.442 166.292 13.442 165.368C13.442 164.723 13.1633 164.18 12.606 163.74C12.0633 163.3 11.1467 163.058 9.856 163.014C9.56267 162.999 9.35733 162.926 9.24 162.794C9.12267 162.662 9.064 162.449 9.064 162.156C9.064 161.731 9.152 161.386 9.328 161.122C9.504 160.858 9.82667 160.719 10.296 160.704C11.3373 160.675 12.276 160.521 13.112 160.242C13.9627 159.963 14.63 159.575 15.114 159.076C15.598 158.563 15.84 157.969 15.84 157.294C15.84 156.443 15.422 155.776 14.586 155.292C13.75 154.793 12.4667 154.544 10.736 154.544C9.16667 154.544 7.64867 154.749 6.182 155.16C4.71533 155.556 3.46867 156.062 2.442 156.678C1.97267 156.957 1.57667 157.096 1.254 157.096C0.99 157.096 0.784667 157.008 0.638 156.832C0.506 156.641 0.44 156.407 0.44 156.128C0.44 155.761 0.513333 155.446 0.66 155.182C0.821333 154.918 1.19533 154.617 1.782 154.28C3.014 153.576 4.45867 153.026 6.116 152.63C7.77333 152.234 9.46733 152.036 11.198 152.036C13.8527 152.036 15.8327 152.483 17.138 153.378C18.4433 154.273 19.096 155.453 19.096 156.92ZM20.3856 171.11C19.8282 171.11 19.4322 170.817 19.1976 170.23C18.9776 169.643 18.8676 168.705 18.8676 167.414C18.8676 165.507 19.1389 163.696 19.6816 161.98C19.8136 161.555 20.0262 161.247 20.3196 161.056C20.6276 160.851 21.0529 160.748 21.5956 160.748C21.8889 160.748 22.0942 160.785 22.2116 160.858C22.3289 160.931 22.3876 161.071 22.3876 161.276C22.3876 161.511 22.2776 162.039 22.0576 162.86C22.0282 162.963 21.9622 163.197 21.8596 163.564C21.7716 163.931 21.6836 164.363 21.5956 164.862C21.5222 165.346 21.4709 165.881 21.4416 166.468C21.9696 164.415 22.6369 162.948 23.4436 162.068C24.2502 161.188 25.2256 160.748 26.3696 160.748C27.1322 160.748 27.7262 160.99 28.1516 161.474C28.5916 161.943 28.8116 162.552 28.8116 163.3C28.8116 163.916 28.6722 164.437 28.3936 164.862C28.1296 165.287 27.7776 165.5 27.3376 165.5C27.0589 165.5 26.8316 165.434 26.6556 165.302C26.4942 165.17 26.4136 164.987 26.4136 164.752C26.4136 164.649 26.4282 164.532 26.4576 164.4C26.4869 164.268 26.5089 164.173 26.5236 164.114C26.5969 163.894 26.6336 163.689 26.6336 163.498C26.6336 163.102 26.4429 162.904 26.0616 162.904C25.7682 162.904 25.4822 163.058 25.2036 163.366C24.9249 163.659 24.6976 164.063 24.5216 164.576C24.3602 165.075 24.2796 165.617 24.2796 166.204C24.2796 166.996 24.4629 167.634 24.8296 168.118C25.1962 168.587 25.7242 168.822 26.4136 168.822C26.9562 168.822 27.4402 168.646 27.8656 168.294C28.2909 167.927 28.8776 167.297 29.6256 166.402C29.8016 166.197 29.9996 166.094 30.2196 166.094C30.4102 166.094 30.5569 166.182 30.6596 166.358C30.7769 166.534 30.8356 166.776 30.8356 167.084C30.8356 167.671 30.6962 168.125 30.4176 168.448C29.7576 169.24 29.0976 169.885 28.4376 170.384C27.7776 170.868 27.0296 171.11 26.1936 171.11C25.5042 171.11 24.8736 170.963 24.3016 170.67C23.7442 170.362 23.2896 169.995 22.9376 169.57C22.5856 169.145 22.3582 168.734 22.2556 168.338C22.2262 168.455 22.1162 168.866 21.9256 169.57C21.7642 170.157 21.5736 170.56 21.3536 170.78C21.1482 171 20.8256 171.11 20.3856 171.11ZM40.3141 166.138C40.5048 166.138 40.6515 166.233 40.7541 166.424C40.8715 166.6 40.9301 166.827 40.9301 167.106C40.9301 167.443 40.8788 167.707 40.7761 167.898C40.6735 168.089 40.5121 168.257 40.2921 168.404L36.0681 171.242C35.5108 174.278 34.7775 176.661 33.8681 178.392C32.9735 180.137 31.8295 181.01 30.4361 181.01C29.6881 181.01 29.0795 180.775 28.6101 180.306C28.1408 179.851 27.9061 179.25 27.9061 178.502C27.9061 177.813 28.0601 177.109 28.3681 176.39C28.6908 175.671 29.2775 174.843 30.1281 173.904C30.9935 172.98 32.2108 171.917 33.7801 170.714L33.8461 170.208C33.9488 169.665 34.0661 168.888 34.1981 167.876C33.9048 168.932 33.4941 169.739 32.9661 170.296C32.4381 170.839 31.8808 171.11 31.2941 171.11C30.6341 171.11 30.0915 170.809 29.6661 170.208C29.2555 169.592 29.0501 168.829 29.0501 167.92C29.0501 166.82 29.1235 165.815 29.2701 164.906C29.4168 163.982 29.6588 163.007 29.9961 161.98C30.1428 161.54 30.3481 161.225 30.6121 161.034C30.8761 160.843 31.2941 160.748 31.8661 160.748C32.1888 160.748 32.4088 160.799 32.5261 160.902C32.6581 161.005 32.7241 161.159 32.7241 161.364C32.7241 161.481 32.6435 161.877 32.4821 162.552C32.3355 163.095 32.2181 163.586 32.1301 164.026C32.0128 164.627 31.9101 165.207 31.8221 165.764C31.7341 166.307 31.6901 166.754 31.6901 167.106C31.6901 167.663 31.8441 167.942 32.1521 167.942C32.3721 167.942 32.6435 167.722 32.9661 167.282C33.3035 166.842 33.6555 166.175 34.0221 165.28C34.4035 164.385 34.7701 163.285 35.1221 161.98C35.2395 161.54 35.4155 161.225 35.6501 161.034C35.8995 160.843 36.2661 160.748 36.7501 160.748C37.0875 160.748 37.3221 160.792 37.4541 160.88C37.5861 160.968 37.6521 161.115 37.6521 161.32C37.6521 161.687 37.4615 162.948 37.0801 165.104L36.5081 168.646C37.6375 167.795 38.7375 167.018 39.8081 166.314C39.9988 166.197 40.1675 166.138 40.3141 166.138ZM30.6781 178.876C31.0448 178.876 31.4555 178.451 31.9101 177.6C32.3648 176.749 32.8195 175.334 33.2741 173.354C32.1448 174.307 31.3235 175.173 30.8101 175.95C30.3115 176.742 30.0621 177.431 30.0621 178.018C30.0621 178.267 30.1061 178.473 30.1941 178.634C30.2968 178.795 30.4581 178.876 30.6781 178.876ZM43.7795 171.11C42.3422 171.11 41.2202 170.707 40.4135 169.9C39.6215 169.079 39.2255 168.001 39.2255 166.666C39.2255 165.478 39.4602 164.437 39.9295 163.542C40.3988 162.647 41.0075 161.958 41.7555 161.474C42.5035 160.99 43.2882 160.748 44.1095 160.748C44.9162 160.748 45.5395 160.99 45.9795 161.474C46.4342 161.943 46.6615 162.552 46.6615 163.3C46.6615 163.916 46.5222 164.437 46.2435 164.862C45.9795 165.287 45.6275 165.5 45.1875 165.5C44.9088 165.5 44.6815 165.434 44.5055 165.302C44.3442 165.17 44.2635 164.987 44.2635 164.752C44.2635 164.649 44.2782 164.532 44.3075 164.4C44.3368 164.268 44.3588 164.173 44.3735 164.114C44.4468 163.894 44.4835 163.689 44.4835 163.498C44.4835 163.307 44.4322 163.161 44.3295 163.058C44.2415 162.955 44.1095 162.904 43.9335 162.904C43.5962 162.904 43.2808 163.058 42.9875 163.366C42.6942 163.659 42.4595 164.063 42.2835 164.576C42.1075 165.089 42.0195 165.654 42.0195 166.27C42.0195 167.971 42.7602 168.822 44.2415 168.822C44.8428 168.822 45.4882 168.624 46.1775 168.228C46.8815 167.817 47.5708 167.209 48.2455 166.402C48.4215 166.197 48.6195 166.094 48.8395 166.094C49.0302 166.094 49.1768 166.182 49.2795 166.358C49.3968 166.534 49.4555 166.776 49.4555 167.084C49.4555 167.641 49.3162 168.096 49.0375 168.448C48.3482 169.299 47.5195 169.959 46.5515 170.428C45.5982 170.883 44.6742 171.11 43.7795 171.11ZM59.2931 166.094C59.4838 166.094 59.6304 166.182 59.7331 166.358C59.8504 166.534 59.9091 166.776 59.9091 167.084C59.9091 167.671 59.7698 168.125 59.4911 168.448C58.8164 169.225 58.1198 169.863 57.4011 170.362C56.6971 170.861 55.8904 171.11 54.9811 171.11C54.2184 171.11 53.6831 170.875 53.3751 170.406C53.0671 169.937 52.9131 169.233 52.9131 168.294C52.9131 167.898 52.9498 167.421 53.0231 166.864C51.7324 166.864 50.8378 166.849 50.3391 166.82C50.3098 167.231 50.2951 167.517 50.2951 167.678V168.14C50.2804 169.049 50.2584 169.687 50.2291 170.054C50.1998 170.421 50.1118 170.692 49.9651 170.868C49.8184 171.029 49.5764 171.11 49.2391 171.11C48.6818 171.11 48.2858 170.817 48.0511 170.23C47.8311 169.643 47.7211 168.705 47.7211 167.414C47.7211 165.507 47.9924 163.696 48.5351 161.98C48.6671 161.555 48.8798 161.247 49.1731 161.056C49.4664 160.851 49.8918 160.748 50.4491 160.748C50.7424 160.748 50.9478 160.785 51.0651 160.858C51.1824 160.931 51.2411 161.071 51.2411 161.276C51.2411 161.511 51.1311 162.039 50.9111 162.86C50.7938 163.344 50.6838 163.931 50.5811 164.62H53.3971C53.5438 163.931 53.7564 163.051 54.0351 161.98C54.1524 161.54 54.3284 161.225 54.5631 161.034C54.8124 160.843 55.1791 160.748 55.6631 160.748C56.0004 160.748 56.2351 160.792 56.3671 160.88C56.4991 160.953 56.5651 161.1 56.5651 161.32C56.5651 161.687 56.3818 162.691 56.0151 164.334C55.6044 166.211 55.3991 167.37 55.3991 167.81C55.3991 168.089 55.4578 168.309 55.5751 168.47C55.6924 168.617 55.8464 168.69 56.0371 168.69C56.3304 168.69 56.6751 168.514 57.0711 168.162C57.4818 167.795 58.0244 167.209 58.6991 166.402C58.8751 166.197 59.0731 166.094 59.2931 166.094ZM69.3385 164.246C69.5292 164.246 69.6758 164.341 69.7785 164.532C69.8812 164.723 69.9325 164.965 69.9325 165.258C69.9325 165.962 69.7198 166.38 69.2945 166.512C68.4145 166.82 67.4465 166.996 66.3905 167.04C66.1118 168.272 65.5618 169.262 64.7405 170.01C63.9192 170.743 62.9878 171.11 61.9465 171.11C61.0665 171.11 60.3112 170.897 59.6805 170.472C59.0645 170.047 58.5952 169.482 58.2725 168.778C57.9498 168.074 57.7885 167.311 57.7885 166.49C57.7885 165.375 58.0012 164.385 58.4265 163.52C58.8518 162.64 59.4385 161.958 60.1865 161.474C60.9345 160.975 61.7632 160.726 62.6725 160.726C63.7872 160.726 64.6818 161.115 65.3565 161.892C66.0458 162.655 66.4492 163.601 66.5665 164.73C67.2558 164.686 68.0772 164.539 69.0305 164.29C69.1478 164.261 69.2505 164.246 69.3385 164.246ZM62.1225 168.778C62.5918 168.778 62.9952 168.587 63.3325 168.206C63.6845 167.825 63.9192 167.275 64.0365 166.556C63.5818 166.248 63.2298 165.845 62.9805 165.346C62.7458 164.847 62.6285 164.319 62.6285 163.762C62.6285 163.527 62.6505 163.293 62.6945 163.058H62.5845C61.9978 163.058 61.5065 163.344 61.1105 163.916C60.7292 164.473 60.5385 165.265 60.5385 166.292C60.5385 167.099 60.6925 167.715 61.0005 168.14C61.3232 168.565 61.6972 168.778 62.1225 168.778ZM70.8728 171.11C70.2275 171.11 69.7362 170.934 69.3988 170.582C69.0762 170.23 68.9148 169.768 68.9148 169.196C68.9148 168.536 69.0982 168.008 69.4648 167.612C69.8462 167.216 70.3742 167.018 71.0488 167.018C71.6942 167.018 72.1782 167.179 72.5008 167.502C72.8382 167.81 73.0068 168.272 73.0068 168.888C73.0068 169.563 72.8162 170.105 72.4348 170.516C72.0535 170.912 71.5328 171.11 70.8728 171.11ZM91.8495 160.66C92.8468 160.939 93.6168 161.423 94.1595 162.112C94.7168 162.787 94.9955 163.615 94.9955 164.598C94.9955 165.757 94.6655 166.835 94.0055 167.832C93.3455 168.829 92.4068 169.629 91.1895 170.23C89.9868 170.817 88.6008 171.11 87.0315 171.11C85.1688 171.11 83.7022 170.707 82.6315 169.9C81.5755 169.093 81.0475 167.971 81.0475 166.534C81.0475 165.801 81.1795 165.258 81.4435 164.906C81.7222 164.554 82.1402 164.378 82.6975 164.378C83.1082 164.378 83.4308 164.495 83.6655 164.73C83.9148 164.95 84.0395 165.273 84.0395 165.698C84.0395 166.461 84.1348 167.062 84.3255 167.502C84.5308 167.927 84.8535 168.243 85.2935 168.448C85.7482 168.639 86.3788 168.734 87.1855 168.734C88.0655 168.734 88.8502 168.536 89.5395 168.14C90.2435 167.744 90.7862 167.223 91.1675 166.578C91.5635 165.933 91.7615 165.243 91.7615 164.51C91.7615 163.894 91.6148 163.381 91.3215 162.97C91.0282 162.545 90.6468 162.295 90.1775 162.222C89.0482 162.867 87.9042 163.19 86.7455 163.19C86.2615 163.19 85.9168 163.109 85.7115 162.948C85.5062 162.787 85.4035 162.523 85.4035 162.156C85.4035 161.628 85.6822 161.225 86.2395 160.946C86.8115 160.667 87.7062 160.499 88.9235 160.44C90.4195 159.501 91.1675 158.269 91.1675 156.744C91.1675 156.099 90.9842 155.6 90.6175 155.248C90.2508 154.881 89.7008 154.698 88.9675 154.698C88.2782 154.698 87.6695 154.808 87.1415 155.028C86.6135 155.233 86.2028 155.519 85.9095 155.886C85.6162 156.238 85.4695 156.619 85.4695 157.03C85.4695 157.147 85.4842 157.301 85.5135 157.492C85.5428 157.683 85.5575 157.829 85.5575 157.932C85.5575 158.299 85.4402 158.577 85.2055 158.768C84.9855 158.944 84.6848 159.032 84.3035 159.032C83.7462 159.032 83.3428 158.834 83.0935 158.438C82.8442 158.027 82.7195 157.485 82.7195 156.81C82.7195 156.003 82.9835 155.263 83.5115 154.588C84.0542 153.899 84.8242 153.356 85.8215 152.96C86.8188 152.549 87.9702 152.344 89.2755 152.344C90.9622 152.344 92.1942 152.681 92.9715 153.356C93.7488 154.031 94.1375 154.955 94.1375 156.128C94.1375 157.008 93.9395 157.844 93.5435 158.636C93.1622 159.413 92.5975 160.088 91.8495 160.66ZM108.033 166.138C108.224 166.138 108.37 166.233 108.473 166.424C108.59 166.6 108.649 166.827 108.649 167.106C108.649 167.443 108.598 167.707 108.495 167.898C108.392 168.089 108.231 168.257 108.011 168.404C106.75 169.255 105.826 169.885 105.239 170.296L103.831 171.242C103.274 174.278 102.54 176.661 101.631 178.392C100.736 180.137 99.5922 181.01 98.1989 181.01C97.4509 181.01 96.8422 180.775 96.3729 180.306C95.9036 179.851 95.6689 179.25 95.6689 178.502C95.6689 177.461 96.0796 176.339 96.9009 175.136C97.7222 173.948 99.2622 172.481 101.521 170.736L101.653 169.878C101.404 170.274 101.074 170.582 100.663 170.802C100.267 171.007 99.8709 171.11 99.4749 171.11C98.5656 171.11 97.8396 170.78 97.2969 170.12C96.7542 169.46 96.4829 168.595 96.4829 167.524C96.4829 166.351 96.7542 165.243 97.2969 164.202C97.8396 163.146 98.5582 162.303 99.4529 161.672C100.362 161.027 101.323 160.704 102.335 160.704C102.658 160.704 102.87 160.77 102.973 160.902C103.09 161.019 103.186 161.239 103.259 161.562C103.538 161.503 103.86 161.474 104.227 161.474C104.594 161.474 104.85 161.533 104.997 161.65C105.158 161.753 105.239 161.965 105.239 162.288C105.239 162.464 105.232 162.603 105.217 162.706C105.158 163.161 104.975 164.312 104.667 166.16C104.608 166.512 104.542 166.901 104.469 167.326C104.41 167.737 104.344 168.177 104.271 168.646C105.4 167.766 106.486 166.989 107.527 166.314C107.718 166.197 107.886 166.138 108.033 166.138ZM100.267 168.888C100.604 168.888 100.927 168.683 101.235 168.272C101.543 167.861 101.763 167.275 101.895 166.512L102.599 162.75C101.998 162.765 101.44 162.999 100.927 163.454C100.414 163.894 100.003 164.481 99.6949 165.214C99.3869 165.947 99.2329 166.725 99.2329 167.546C99.2329 168.001 99.3209 168.338 99.4969 168.558C99.6876 168.778 99.9442 168.888 100.267 168.888ZM98.4409 178.876C98.8076 178.876 99.2182 178.436 99.6729 177.556C100.142 176.676 100.59 175.275 101.015 173.354C99.8856 174.322 99.0716 175.195 98.5729 175.972C98.0742 176.749 97.8249 177.431 97.8249 178.018C97.8249 178.267 97.8689 178.473 97.9569 178.634C98.0596 178.795 98.2209 178.876 98.4409 178.876ZM118.516 164.246C118.707 164.246 118.854 164.341 118.956 164.532C119.059 164.723 119.11 164.965 119.11 165.258C119.11 165.962 118.898 166.38 118.472 166.512C117.592 166.82 116.624 166.996 115.568 167.04C115.29 168.272 114.74 169.262 113.918 170.01C113.097 170.743 112.166 171.11 111.124 171.11C110.244 171.11 109.489 170.897 108.858 170.472C108.242 170.047 107.773 169.482 107.45 168.778C107.128 168.074 106.966 167.311 106.966 166.49C106.966 165.375 107.179 164.385 107.604 163.52C108.03 162.64 108.616 161.958 109.364 161.474C110.112 160.975 110.941 160.726 111.85 160.726C112.965 160.726 113.86 161.115 114.534 161.892C115.224 162.655 115.627 163.601 115.744 164.73C116.434 164.686 117.255 164.539 118.208 164.29C118.326 164.261 118.428 164.246 118.516 164.246ZM111.3 168.778C111.77 168.778 112.173 168.587 112.51 168.206C112.862 167.825 113.097 167.275 113.214 166.556C112.76 166.248 112.408 165.845 112.158 165.346C111.924 164.847 111.806 164.319 111.806 163.762C111.806 163.527 111.828 163.293 111.872 163.058H111.762C111.176 163.058 110.684 163.344 110.288 163.916C109.907 164.473 109.716 165.265 109.716 166.292C109.716 167.099 109.87 167.715 110.178 168.14C110.501 168.565 110.875 168.778 111.3 168.778ZM128.97 166.094C129.161 166.094 129.307 166.182 129.41 166.358C129.527 166.534 129.586 166.776 129.586 167.084C129.586 167.671 129.447 168.125 129.168 168.448C128.537 169.225 127.855 169.863 127.122 170.362C126.403 170.861 125.582 171.11 124.658 171.11C123.881 171.11 123.25 170.831 122.766 170.274C121.93 170.817 121.057 171.095 120.148 171.11C119.957 173.941 119.525 176.302 118.85 178.194C118.175 180.101 117.185 181.054 115.88 181.054C115.088 181.054 114.501 180.768 114.12 180.196C113.739 179.624 113.548 178.832 113.548 177.82C113.548 176.383 113.878 174.703 114.538 172.782C115.198 170.875 116.217 168.771 117.596 166.468C117.596 164.327 117.581 162.838 117.552 162.002C117.537 161.577 117.706 161.239 118.058 160.99C118.41 160.741 118.85 160.616 119.378 160.616C119.686 160.616 119.906 160.682 120.038 160.814C120.185 160.931 120.265 161.173 120.28 161.54C120.28 161.907 120.287 162.178 120.302 162.354C120.771 161.767 121.233 161.349 121.688 161.1C122.143 160.836 122.627 160.704 123.14 160.704C123.961 160.704 124.629 161.034 125.142 161.694C125.67 162.354 125.934 163.219 125.934 164.29C125.934 165.067 125.809 165.823 125.56 166.556C125.311 167.289 124.966 167.957 124.526 168.558C124.834 168.646 125.091 168.69 125.296 168.69C125.78 168.69 126.242 168.514 126.682 168.162C127.122 167.81 127.687 167.223 128.376 166.402C128.552 166.197 128.75 166.094 128.97 166.094ZM120.258 168.998C120.786 168.881 121.27 168.595 121.71 168.14C122.165 167.671 122.524 167.099 122.788 166.424C123.052 165.735 123.184 165.016 123.184 164.268C123.184 163.828 123.096 163.498 122.92 163.278C122.744 163.043 122.509 162.926 122.216 162.926C121.688 162.926 121.05 163.483 120.302 164.598C120.287 165.243 120.28 166.189 120.28 167.436C120.28 168.111 120.273 168.631 120.258 168.998ZM116.056 178.898C116.452 178.898 116.782 178.033 117.046 176.302C117.31 174.586 117.479 172.445 117.552 169.878C116.921 171.345 116.423 172.745 116.056 174.08C115.689 175.415 115.506 176.537 115.506 177.446C115.506 177.915 115.565 178.275 115.682 178.524C115.785 178.773 115.909 178.898 116.056 178.898ZM139.034 164.246C139.224 164.246 139.371 164.341 139.474 164.532C139.576 164.723 139.628 164.965 139.628 165.258C139.628 165.962 139.415 166.38 138.99 166.512C138.11 166.82 137.142 166.996 136.086 167.04C135.807 168.272 135.257 169.262 134.436 170.01C133.614 170.743 132.683 171.11 131.642 171.11C130.762 171.11 130.006 170.897 129.376 170.472C128.76 170.047 128.29 169.482 127.968 168.778C127.645 168.074 127.484 167.311 127.484 166.49C127.484 165.375 127.696 164.385 128.122 163.52C128.547 162.64 129.134 161.958 129.882 161.474C130.63 160.975 131.458 160.726 132.368 160.726C133.482 160.726 134.377 161.115 135.052 161.892C135.741 162.655 136.144 163.601 136.262 164.73C136.951 164.686 137.772 164.539 138.726 164.29C138.843 164.261 138.946 164.246 139.034 164.246ZM131.818 168.778C132.287 168.778 132.69 168.587 133.028 168.206C133.38 167.825 133.614 167.275 133.732 166.556C133.277 166.248 132.925 165.845 132.676 165.346C132.441 164.847 132.324 164.319 132.324 163.762C132.324 163.527 132.346 163.293 132.39 163.058H132.28C131.693 163.058 131.202 163.344 130.806 163.916C130.424 164.473 130.234 165.265 130.234 166.292C130.234 167.099 130.388 167.715 130.696 168.14C131.018 168.565 131.392 168.778 131.818 168.778ZM149.444 164.246C149.634 164.246 149.781 164.341 149.884 164.532C149.986 164.723 150.038 164.965 150.038 165.258C150.038 165.625 149.986 165.911 149.884 166.116C149.781 166.307 149.62 166.439 149.4 166.512C148.52 166.82 147.552 166.996 146.496 167.04C146.202 168.257 145.645 169.24 144.824 169.988C144.017 170.736 143.122 171.11 142.14 171.11C140.658 171.11 139.58 170.545 138.906 169.416C138.231 168.287 137.894 166.651 137.894 164.51C137.894 162.618 138.128 160.565 138.598 158.35C139.067 156.121 139.749 154.229 140.644 152.674C141.553 151.105 142.631 150.32 143.878 150.32C144.552 150.32 145.095 150.613 145.506 151.2C145.916 151.772 146.122 152.52 146.122 153.444C146.122 154.647 145.894 155.842 145.44 157.03C144.985 158.218 144.23 159.465 143.174 160.77C144.156 160.843 144.956 161.254 145.572 162.002C146.188 162.735 146.554 163.645 146.672 164.73C147.361 164.686 148.182 164.539 149.136 164.29C149.224 164.261 149.326 164.246 149.444 164.246ZM143.372 152.498C143.078 152.498 142.756 152.938 142.404 153.818C142.066 154.683 141.751 155.864 141.458 157.36C141.164 158.856 140.944 160.491 140.798 162.266C141.766 160.491 142.536 158.929 143.108 157.58C143.694 156.216 143.988 155.006 143.988 153.95C143.988 153.481 143.929 153.121 143.812 152.872C143.709 152.623 143.562 152.498 143.372 152.498ZM142.228 168.778C142.682 168.778 143.086 168.587 143.438 168.206C143.79 167.825 144.024 167.275 144.142 166.556C143.687 166.248 143.335 165.845 143.086 165.346C142.851 164.847 142.734 164.319 142.734 163.762C142.734 163.557 142.763 163.278 142.822 162.926H142.756C142.154 162.926 141.648 163.227 141.238 163.828C140.842 164.415 140.644 165.207 140.644 166.204C140.644 167.04 140.798 167.678 141.106 168.118C141.428 168.558 141.802 168.778 142.228 168.778ZM159.358 164.246C159.549 164.246 159.695 164.341 159.798 164.532C159.901 164.723 159.952 164.965 159.952 165.258C159.952 165.962 159.739 166.38 159.314 166.512C158.434 166.82 157.466 166.996 156.41 167.04C156.131 168.272 155.581 169.262 154.76 170.01C153.939 170.743 153.007 171.11 151.966 171.11C151.086 171.11 150.331 170.897 149.7 170.472C149.084 170.047 148.615 169.482 148.292 168.778C147.969 168.074 147.808 167.311 147.808 166.49C147.808 165.375 148.021 164.385 148.446 163.52C148.871 162.64 149.458 161.958 150.206 161.474C150.954 160.975 151.783 160.726 152.692 160.726C153.807 160.726 154.701 161.115 155.376 161.892C156.065 162.655 156.469 163.601 156.586 164.73C157.275 164.686 158.097 164.539 159.05 164.29C159.167 164.261 159.27 164.246 159.358 164.246ZM152.142 168.778C152.611 168.778 153.015 168.587 153.352 168.206C153.704 167.825 153.939 167.275 154.056 166.556C153.601 166.248 153.249 165.845 153 165.346C152.765 164.847 152.648 164.319 152.648 163.762C152.648 163.527 152.67 163.293 152.714 163.058H152.604C152.017 163.058 151.526 163.344 151.13 163.916C150.749 164.473 150.558 165.265 150.558 166.292C150.558 167.099 150.712 167.715 151.02 168.14C151.343 168.565 151.717 168.778 152.142 168.778ZM160.892 171.11C160.247 171.11 159.756 170.934 159.418 170.582C159.096 170.23 158.934 169.768 158.934 169.196C158.934 168.536 159.118 168.008 159.484 167.612C159.866 167.216 160.394 167.018 161.068 167.018C161.714 167.018 162.198 167.179 162.52 167.502C162.858 167.81 163.026 168.272 163.026 168.888C163.026 169.563 162.836 170.105 162.454 170.516C162.073 170.912 161.552 171.11 160.892 171.11ZM191.637 166.094C191.828 166.094 191.974 166.182 192.077 166.358C192.194 166.534 192.253 166.776 192.253 167.084C192.253 167.656 192.114 168.111 191.835 168.448C191.087 169.372 190.339 170.047 189.591 170.472C188.858 170.897 188.073 171.11 187.237 171.11C185.99 171.11 185.022 170.743 184.333 170.01C183.644 169.262 183.299 168.265 183.299 167.018C183.299 166.241 183.475 164.987 183.827 163.256L184.641 159.23C185.052 157.206 185.286 155.82 185.345 155.072C184.377 155.028 183.233 155.006 181.913 155.006C181.121 155.006 180.549 155.013 180.197 155.028C179.669 157.697 179.17 160.403 178.701 163.146C178.54 164.143 178.371 165.302 178.195 166.622C178.019 167.927 177.902 168.983 177.843 169.79C177.814 170.215 177.638 170.545 177.315 170.78C176.992 171 176.604 171.11 176.149 171.11C175.665 171.11 175.291 170.993 175.027 170.758C174.763 170.523 174.631 170.215 174.631 169.834C174.631 169.482 174.682 168.903 174.785 168.096C174.902 167.275 175.034 166.417 175.181 165.522C175.342 164.627 175.467 163.85 175.555 163.19C175.746 161.973 175.951 160.785 176.171 159.626C176.391 158.467 176.611 157.353 176.831 156.282L177.051 155.226C175.687 155.387 174.697 155.651 174.081 156.018C173.48 156.385 173.179 156.883 173.179 157.514C173.179 158.027 173.304 158.475 173.553 158.856C173.626 158.959 173.663 159.091 173.663 159.252C173.663 159.545 173.502 159.817 173.179 160.066C172.871 160.301 172.541 160.418 172.189 160.418C171.94 160.418 171.734 160.345 171.573 160.198C171.28 159.949 171.038 159.597 170.847 159.142C170.656 158.673 170.561 158.145 170.561 157.558C170.561 156.311 170.994 155.314 171.859 154.566C172.724 153.803 174.03 153.246 175.775 152.894C177.535 152.542 179.801 152.366 182.573 152.366C185.448 152.366 188.264 152.586 191.021 153.026C191.476 153.099 191.798 153.253 191.989 153.488C192.194 153.708 192.297 153.965 192.297 154.258C192.297 154.698 192.187 155.035 191.967 155.27C191.747 155.49 191.417 155.6 190.977 155.6C190.816 155.6 190.691 155.593 190.603 155.578L188.381 155.292C188.322 156.319 188.168 157.375 187.919 158.46L186.577 164.752C186.43 165.485 186.357 166.116 186.357 166.644C186.357 167.26 186.496 167.722 186.775 168.03C187.068 168.338 187.472 168.492 187.985 168.492C188.469 168.492 188.938 168.331 189.393 168.008C189.862 167.685 190.412 167.15 191.043 166.402C191.219 166.197 191.417 166.094 191.637 166.094ZM202.21 166.094C202.401 166.094 202.548 166.182 202.65 166.358C202.768 166.534 202.826 166.776 202.826 167.084C202.826 167.671 202.687 168.125 202.408 168.448C201.778 169.225 201.096 169.863 200.362 170.362C199.644 170.861 198.822 171.11 197.898 171.11C197.121 171.11 196.49 170.831 196.006 170.274C195.17 170.817 194.298 171.095 193.388 171.11C193.198 173.941 192.765 176.302 192.09 178.194C191.416 180.101 190.426 181.054 189.12 181.054C188.328 181.054 187.742 180.768 187.36 180.196C186.979 179.624 186.788 178.832 186.788 177.82C186.788 176.383 187.118 174.703 187.778 172.782C188.438 170.875 189.458 168.771 190.836 166.468C190.836 164.327 190.822 162.838 190.792 162.002C190.778 161.577 190.946 161.239 191.298 160.99C191.65 160.741 192.09 160.616 192.618 160.616C192.926 160.616 193.146 160.682 193.278 160.814C193.425 160.931 193.506 161.173 193.52 161.54C193.52 161.907 193.528 162.178 193.542 162.354C194.012 161.767 194.474 161.349 194.928 161.1C195.383 160.836 195.867 160.704 196.38 160.704C197.202 160.704 197.869 161.034 198.382 161.694C198.91 162.354 199.174 163.219 199.174 164.29C199.174 165.067 199.05 165.823 198.8 166.556C198.551 167.289 198.206 167.957 197.766 168.558C198.074 168.646 198.331 168.69 198.536 168.69C199.02 168.69 199.482 168.514 199.922 168.162C200.362 167.81 200.927 167.223 201.616 166.402C201.792 166.197 201.99 166.094 202.21 166.094ZM193.498 168.998C194.026 168.881 194.51 168.595 194.95 168.14C195.405 167.671 195.764 167.099 196.028 166.424C196.292 165.735 196.424 165.016 196.424 164.268C196.424 163.828 196.336 163.498 196.16 163.278C195.984 163.043 195.75 162.926 195.456 162.926C194.928 162.926 194.29 163.483 193.542 164.598C193.528 165.243 193.52 166.189 193.52 167.436C193.52 168.111 193.513 168.631 193.498 168.998ZM189.296 178.898C189.692 178.898 190.022 178.033 190.286 176.302C190.55 174.586 190.719 172.445 190.792 169.878C190.162 171.345 189.663 172.745 189.296 174.08C188.93 175.415 188.746 176.537 188.746 177.446C188.746 177.915 188.805 178.275 188.922 178.524C189.025 178.773 189.15 178.898 189.296 178.898ZM212.274 164.246C212.465 164.246 212.611 164.341 212.714 164.532C212.817 164.723 212.868 164.965 212.868 165.258C212.868 165.962 212.655 166.38 212.23 166.512C211.35 166.82 210.382 166.996 209.326 167.04C209.047 168.272 208.497 169.262 207.676 170.01C206.855 170.743 205.923 171.11 204.882 171.11C204.002 171.11 203.247 170.897 202.616 170.472C202 170.047 201.531 169.482 201.208 168.778C200.885 168.074 200.724 167.311 200.724 166.49C200.724 165.375 200.937 164.385 201.362 163.52C201.787 162.64 202.374 161.958 203.122 161.474C203.87 160.975 204.699 160.726 205.608 160.726C206.723 160.726 207.617 161.115 208.292 161.892C208.981 162.655 209.385 163.601 209.502 164.73C210.191 164.686 211.013 164.539 211.966 164.29C212.083 164.261 212.186 164.246 212.274 164.246ZM205.058 168.778C205.527 168.778 205.931 168.587 206.268 168.206C206.62 167.825 206.855 167.275 206.972 166.556C206.517 166.248 206.165 165.845 205.916 165.346C205.681 164.847 205.564 164.319 205.564 163.762C205.564 163.527 205.586 163.293 205.63 163.058H205.52C204.933 163.058 204.442 163.344 204.046 163.916C203.665 164.473 203.474 165.265 203.474 166.292C203.474 167.099 203.628 167.715 203.936 168.14C204.259 168.565 204.633 168.778 205.058 168.778ZM215.182 171.11C213.744 171.11 212.622 170.707 211.816 169.9C211.024 169.079 210.628 168.001 210.628 166.666C210.628 165.478 210.862 164.437 211.332 163.542C211.801 162.647 212.41 161.958 213.158 161.474C213.906 160.99 214.69 160.748 215.512 160.748C216.318 160.748 216.942 160.99 217.382 161.474C217.836 161.943 218.064 162.552 218.064 163.3C218.064 163.916 217.924 164.437 217.646 164.862C217.382 165.287 217.03 165.5 216.59 165.5C216.311 165.5 216.084 165.434 215.908 165.302C215.746 165.17 215.666 164.987 215.666 164.752C215.666 164.649 215.68 164.532 215.71 164.4C215.739 164.268 215.761 164.173 215.776 164.114C215.849 163.894 215.886 163.689 215.886 163.498C215.886 163.307 215.834 163.161 215.732 163.058C215.644 162.955 215.512 162.904 215.336 162.904C214.998 162.904 214.683 163.058 214.39 163.366C214.096 163.659 213.862 164.063 213.686 164.576C213.51 165.089 213.422 165.654 213.422 166.27C213.422 167.971 214.162 168.822 215.644 168.822C216.245 168.822 216.89 168.624 217.58 168.228C218.284 167.817 218.973 167.209 219.648 166.402C219.824 166.197 220.022 166.094 220.242 166.094C220.432 166.094 220.579 166.182 220.682 166.358C220.799 166.534 220.858 166.776 220.858 167.084C220.858 167.641 220.718 168.096 220.44 168.448C219.75 169.299 218.922 169.959 217.954 170.428C217 170.883 216.076 171.11 215.182 171.11ZM220.641 171.11C220.084 171.11 219.688 170.817 219.453 170.23C219.233 169.643 219.123 168.705 219.123 167.414C219.123 165.507 219.395 163.696 219.937 161.98C220.069 161.555 220.282 161.247 220.575 161.056C220.883 160.851 221.309 160.748 221.851 160.748C222.145 160.748 222.35 160.785 222.467 160.858C222.585 160.931 222.643 161.071 222.643 161.276C222.643 161.511 222.533 162.039 222.313 162.86C222.167 163.447 222.049 163.96 221.961 164.4C221.873 164.825 221.8 165.361 221.741 166.006C222.137 164.862 222.607 163.894 223.149 163.102C223.707 162.31 224.271 161.723 224.843 161.342C225.43 160.946 225.98 160.748 226.493 160.748C227.007 160.748 227.366 160.865 227.571 161.1C227.791 161.335 227.901 161.694 227.901 162.178C227.901 162.647 227.762 163.498 227.483 164.73C227.366 165.258 227.285 165.654 227.241 165.918C227.975 164.114 228.789 162.801 229.683 161.98C230.578 161.159 231.414 160.748 232.191 160.748C233.145 160.748 233.621 161.225 233.621 162.178C233.621 162.75 233.46 163.784 233.137 165.28C232.859 166.556 232.719 167.399 232.719 167.81C232.719 168.397 232.932 168.69 233.357 168.69C233.651 168.69 233.995 168.514 234.391 168.162C234.802 167.795 235.345 167.209 236.019 166.402C236.195 166.197 236.393 166.094 236.613 166.094C236.804 166.094 236.951 166.182 237.053 166.358C237.171 166.534 237.229 166.776 237.229 167.084C237.229 167.671 237.09 168.125 236.811 168.448C236.181 169.225 235.499 169.863 234.765 170.362C234.047 170.861 233.225 171.11 232.301 171.11C231.553 171.11 230.989 170.897 230.607 170.472C230.226 170.032 230.035 169.401 230.035 168.58C230.035 168.169 230.138 167.436 230.343 166.38C230.534 165.456 230.629 164.818 230.629 164.466C230.629 164.231 230.549 164.114 230.387 164.114C230.197 164.114 229.925 164.363 229.573 164.862C229.221 165.346 228.869 165.991 228.517 166.798C228.165 167.605 227.879 168.455 227.659 169.35C227.498 170.054 227.307 170.523 227.087 170.758C226.882 170.993 226.545 171.11 226.075 171.11C225.591 171.11 225.225 170.883 224.975 170.428C224.741 169.959 224.623 169.394 224.623 168.734C224.623 168.177 224.697 167.37 224.843 166.314C224.961 165.375 225.019 164.759 225.019 164.466C225.019 164.231 224.939 164.114 224.777 164.114C224.557 164.114 224.279 164.378 223.941 164.906C223.604 165.434 223.274 166.109 222.951 166.93C222.643 167.751 222.394 168.558 222.203 169.35C222.042 170.039 221.851 170.509 221.631 170.758C221.426 170.993 221.096 171.11 220.641 171.11ZM246.671 164.246C246.861 164.246 247.008 164.341 247.111 164.532C247.213 164.723 247.265 164.965 247.265 165.258C247.265 165.962 247.052 166.38 246.627 166.512C245.747 166.82 244.779 166.996 243.723 167.04C243.444 168.272 242.894 169.262 242.073 170.01C241.251 170.743 240.32 171.11 239.279 171.11C238.399 171.11 237.643 170.897 237.013 170.472C236.397 170.047 235.927 169.482 235.605 168.778C235.282 168.074 235.121 167.311 235.121 166.49C235.121 165.375 235.333 164.385 235.759 163.52C236.184 162.64 236.771 161.958 237.519 161.474C238.267 160.975 239.095 160.726 240.005 160.726C241.119 160.726 242.014 161.115 242.689 161.892C243.378 162.655 243.781 163.601 243.899 164.73C244.588 164.686 245.409 164.539 246.363 164.29C246.48 164.261 246.583 164.246 246.671 164.246ZM239.455 168.778C239.924 168.778 240.327 168.587 240.665 168.206C241.017 167.825 241.251 167.275 241.369 166.556C240.914 166.248 240.562 165.845 240.313 165.346C240.078 164.847 239.961 164.319 239.961 163.762C239.961 163.527 239.983 163.293 240.027 163.058H239.917C239.33 163.058 238.839 163.344 238.443 163.916C238.061 164.473 237.871 165.265 237.871 166.292C237.871 167.099 238.025 167.715 238.333 168.14C238.655 168.565 239.029 168.778 239.455 168.778ZM248.205 171.11C247.56 171.11 247.068 170.934 246.731 170.582C246.408 170.23 246.247 169.768 246.247 169.196C246.247 168.536 246.43 168.008 246.797 167.612C247.178 167.216 247.706 167.018 248.381 167.018C249.026 167.018 249.51 167.179 249.833 167.502C250.17 167.81 250.339 168.272 250.339 168.888C250.339 169.563 250.148 170.105 249.767 170.516C249.386 170.912 248.865 171.11 248.205 171.11Z" fill="#EA9C27"/>
    <path d="M174.091 56.3992C174.091 83.2341 152.337 104.988 125.502 104.988C98.6675 104.988 76.9135 83.2341 76.9135 56.3992C76.9135 29.5643 98.6675 7.81036 125.502 7.81036C152.337 7.81036 174.091 29.5643 174.091 56.3992Z" fill="#EA9C27"/>
    <mask id="mask0_9_59" style="mask-type:alpha" maskUnits="userSpaceOnUse" x="77" y="8" width="98" height="98">
        <ellipse cx="126.244" cy="56.9825" rx="48.7117" ry="48.3778" transform="rotate(11.2965 126.244 56.9825)" fill="white"/>
    </mask>
    <g mask="url(#mask0_9_59)">
        <g filter="url(#filter0_i_9_59)">
            <path d="M166.568 84.5359C146.981 109.716 122.725 114.021 110.319 117.501C103.311 101.908 104.601 81.8858 124.188 56.7062C143.774 31.5266 160.555 25.9695 175.068 26.0359C178.562 35.9543 186.154 59.3563 166.568 84.5359Z" fill="#2FC822"/>
            <g filter="url(#filter1_d_9_59)">
                <path d="M110.926 82.5543L126.796 95.3586L148.004 102.175M108.749 94.2149L118.248 106.99L138.766 109.56" stroke="#0C9500" stroke-width="0.5"/>
            </g>
            <g filter="url(#filter2_d_9_59)">
                <path d="M175.958 26.9751L113.26 114.04" stroke="#0C9500" stroke-width="0.5"/>
            </g>
            <g filter="url(#filter3_d_9_59)">
                <path d="M179.784 41.846L164.203 43.1893L158.602 29.3711M179.732 53.1627L157.078 53.0589L146.183 36.0336M177.555 64.8233L149.953 62.9286L134.807 46.5911M173.26 75.0596L142.473 73.1502L125.911 56.8063M165.062 87.3999L136.061 81.9622L120.22 62.7923M156.885 95.1428L131.782 88.662L115.217 73.0253" stroke="#0C9500" stroke-width="0.5"/>
            </g>
        </g>
        <g filter="url(#filter4_d_9_59)">
            <rect x="102.253" y="87.0016" width="8.88633" height="22.5576" fill="#EEEDE7"/>
            <path d="M92 68.8111C92 67.1542 93.3431 65.8111 95 65.8111H118.393C120.05 65.8111 121.393 67.1542 121.393 68.8111V77.7751C121.393 78.6426 121.018 79.4676 120.364 80.0374L111.645 87.6309C111.099 88.1066 110.399 88.3687 109.675 88.3687H103.719C102.994 88.3687 102.294 88.1066 101.748 87.6309L93.0297 80.0374C92.3755 79.4676 92 78.6426 92 77.7751V68.8111Z" fill="#EEEDE7"/>
            <path d="M92.9948 35.1514C93.0132 34.5092 93.4249 33.9446 94.0307 33.7308C95.0415 33.3741 96.1014 34.1239 96.1014 35.1958V67.8911C96.1014 69.0075 95.1964 69.9125 94.08 69.9125C92.941 69.9125 92.0269 68.9718 92.0595 67.8333L92.9948 35.1514Z" fill="#EEEDE7"/>
            <path d="M120.399 35.1376C120.38 34.4923 119.965 33.9258 119.354 33.7145C118.345 33.3648 117.292 34.1145 117.292 35.1829V67.2081C117.292 68.3242 118.197 69.2289 119.313 69.2289C120.452 69.2289 121.366 68.2878 121.333 67.1492L120.399 35.1376Z" fill="#EEEDE7"/>
            <rect x="100.886" y="33" width="3.41782" height="34.8618" rx="1.70891" fill="#EEEDE7"/>
            <rect x="109.089" y="33" width="3.41782" height="34.8618" rx="1.70891" fill="#EEEDE7"/>
        </g>
    </g>
    <defs>
        <filter id="filter0_i_9_59" x="106.439" y="26.0353" width="73.3661" height="95.4659" filterUnits="userSpaceOnUse" color-interpolation-filters="sRGB">
            <feFlood flood-opacity="0" result="BackgroundImageFix"/>
            <feBlend mode="normal" in="SourceGraphic" in2="BackgroundImageFix" result="shape"/>
            <feColorMatrix in="SourceAlpha" type="matrix" values="0 0 0 0 0 0 0 0 0 0 0 0 0 0 0 0 0 0 127 0" result="hardAlpha"/>
            <feOffset dy="4"/>
            <feGaussianBlur stdDeviation="2"/>
            <feComposite in2="hardAlpha" operator="arithmetic" k2="-1" k3="1"/>
            <feColorMatrix type="matrix" values="0 0 0 0 0 0 0 0 0 0 0 0 0 0 0 0 0 0 0.25 0"/>
            <feBlend mode="normal" in2="shape" result="effect1_innerShadow_9_59"/>
        </filter>
        <filter id="filter1_d_9_59" x="104.548" y="82.3598" width="47.532" height="35.4479" filterUnits="userSpaceOnUse" color-interpolation-filters="sRGB">
            <feFlood flood-opacity="0" result="BackgroundImageFix"/>
            <feColorMatrix in="SourceAlpha" type="matrix" values="0 0 0 0 0 0 0 0 0 0 0 0 0 0 0 0 0 0 127 0" result="hardAlpha"/>
            <feOffset dy="4"/>
            <feGaussianBlur stdDeviation="2"/>
            <feComposite in2="hardAlpha" operator="out"/>
            <feColorMatrix type="matrix" values="0 0 0 0 0 0 0 0 0 0 0 0 0 0 0 0 0 0 0.25 0"/>
            <feBlend mode="normal" in2="BackgroundImageFix" result="effect1_dropShadow_9_59"/>
            <feBlend mode="normal" in="SourceGraphic" in2="effect1_dropShadow_9_59" result="shape"/>
        </filter>
        <filter id="filter2_d_9_59" x="109.057" y="26.829" width="71.1045" height="95.3573" filterUnits="userSpaceOnUse" color-interpolation-filters="sRGB">
            <feFlood flood-opacity="0" result="BackgroundImageFix"/>
            <feColorMatrix in="SourceAlpha" type="matrix" values="0 0 0 0 0 0 0 0 0 0 0 0 0 0 0 0 0 0 127 0" result="hardAlpha"/>
            <feOffset dy="4"/>
            <feGaussianBlur stdDeviation="2"/>
            <feComposite in2="hardAlpha" operator="out"/>
            <feColorMatrix type="matrix" values="0 0 0 0 0 0 0 0 0 0 0 0 0 0 0 0 0 0 0.25 0"/>
            <feBlend mode="normal" in2="BackgroundImageFix" result="effect1_dropShadow_9_59"/>
            <feBlend mode="normal" in="SourceGraphic" in2="effect1_dropShadow_9_59" result="shape"/>
        </filter>
        <filter id="filter3_d_9_59" x="111.046" y="29.2772" width="72.7596" height="74.1077" filterUnits="userSpaceOnUse" color-interpolation-filters="sRGB">
            <feFlood flood-opacity="0" result="BackgroundImageFix"/>
            <feColorMatrix in="SourceAlpha" type="matrix" values="0 0 0 0 0 0 0 0 0 0 0 0 0 0 0 0 0 0 127 0" result="hardAlpha"/>
            <feOffset dy="4"/>
            <feGaussianBlur stdDeviation="2"/>
            <feComposite in2="hardAlpha" operator="out"/>
            <feColorMatrix type="matrix" values="0 0 0 0 0 0 0 0 0 0 0 0 0 0 0 0 0 0 0.25 0"/>
            <feBlend mode="normal" in2="BackgroundImageFix" result="effect1_dropShadow_9_59"/>
            <feBlend mode="normal" in="SourceGraphic" in2="effect1_dropShadow_9_59" result="shape"/>
        </filter>
        <filter id="filter4_d_9_59" x="88" y="33" width="37.3932" height="84.5592" filterUnits="userSpaceOnUse" color-interpolation-filters="sRGB">
            <feFlood flood-opacity="0" result="BackgroundImageFix"/>
            <feColorMatrix in="SourceAlpha" type="matrix" values="0 0 0 0 0 0 0 0 0 0 0 0 0 0 0 0 0 0 127 0" result="hardAlpha"/>
            <feOffset dy="4"/>
            <feGaussianBlur stdDeviation="2"/>
            <feComposite in2="hardAlpha" operator="out"/>
            <feColorMatrix type="matrix" values="0 0 0 0 0 0 0 0 0 0 0 0 0 0 0 0 0 0 0.25 0"/>
            <feBlend mode="normal" in2="BackgroundImageFix" result="effect1_dropShadow_9_59"/>
            <feBlend mode="normal" in="SourceGraphic" in2="effect1_dropShadow_9_59" result="shape"/>
        </filter>
    </defs>
</svg>
