<svg width="35" height="35" viewBox="0 0 35 35" fill="none" xmlns="http://www.w3.org/2000/svg">
    <path d="M10.2055 0C4.57778 0 0 4.58202 0 10.2112V24.7945C0 30.4222 4.58202 35 10.2112 35H24.7945C30.4222 35 35 30.418 35 24.7888V10.2055C35 4.57778 30.418 0 24.7888 0H10.2055ZM27.7083 5.83333C28.5133 5.83333 29.1667 6.48667 29.1667 7.29167C29.1667 8.09667 28.5133 8.75 27.7083 8.75C26.9033 8.75 26.25 8.09667 26.25 7.29167C26.25 6.48667 26.9033 5.83333 27.7083 5.83333ZM17.5 8.75C22.3256 8.75 26.25 12.6744 26.25 17.5C26.25 22.3256 22.3256 26.25 17.5 26.25C12.6744 26.25 8.75 22.3256 8.75 17.5C8.75 12.6744 12.6744 8.75 17.5 8.75ZM17.5 11.6667C15.9529 11.6667 14.4692 12.2812 13.3752 13.3752C12.2812 14.4692 11.6667 15.9529 11.6667 17.5C11.6667 19.0471 12.2812 20.5308 13.3752 21.6248C14.4692 22.7188 15.9529 23.3333 17.5 23.3333C19.0471 23.3333 20.5308 22.7188 21.6248 21.6248C22.7188 20.5308 23.3333 19.0471 23.3333 17.5C23.3333 15.9529 22.7188 14.4692 21.6248 13.3752C20.5308 12.2812 19.0471 11.6667 17.5 11.6667Z" fill="#ffffff"/>
</svg>
