<svg width="35" height="35" viewBox="0 0 35 35" fill="none" xmlns="http://www.w3.org/2000/svg">
    <path d="M31.8182 0H3.18182C1.42386 0 0 1.42386 0 3.18182V31.8182C0 33.5761 1.42386 35 3.18182 35H31.8182C33.5761 35 35 33.5761 35 31.8182V3.18182C35 1.42386 33.5761 0 31.8182 0ZM27.6198 23.8111L24.648 23.8525C24.648 23.8525 24.0068 23.9782 23.1684 23.3991C22.0564 22.6355 21.008 20.6484 20.1902 20.9061C19.3614 21.1702 19.3868 22.9584 19.3868 22.9584C19.3868 22.9584 19.3932 23.2734 19.2039 23.4786C18.9986 23.6998 18.5961 23.6775 18.5961 23.6775H17.2645C17.2645 23.6775 14.3277 23.9209 11.7393 21.2227C8.92023 18.2811 6.42886 12.4759 6.42886 12.4759C6.42886 12.4759 6.2825 12.11 6.43841 11.9223C6.615 11.7155 7.09068 11.7091 7.09068 11.7091L10.2725 11.6932C10.2725 11.6932 10.5716 11.7457 10.788 11.9048C10.9645 12.0352 11.0648 12.2802 11.0648 12.2802C11.0648 12.2802 11.5786 13.5832 12.2611 14.7636C13.5911 17.0641 14.2084 17.5684 14.6602 17.3218C15.3189 16.9623 15.1216 14.07 15.1216 14.07C15.1216 14.07 15.1343 13.02 14.7907 12.5523C14.5234 12.188 14.0207 12.0798 13.8011 12.0527C13.6214 12.0289 13.9141 11.612 14.2959 11.4243C14.8686 11.1443 15.8805 11.1284 17.0752 11.1395C18.0059 11.1491 18.2748 11.2064 18.6375 11.2955C19.7352 11.5611 19.363 12.5857 19.363 15.0436C19.363 15.8311 19.2214 16.9384 19.7877 17.3027C20.0327 17.4602 20.6293 17.3266 22.1168 14.7907C22.8248 13.588 23.3545 12.1752 23.3545 12.1752C23.3545 12.1752 23.4707 11.9239 23.6505 11.8157C23.835 11.7043 24.0832 11.7393 24.0832 11.7393L27.432 11.7186C27.432 11.7186 28.4375 11.5977 28.6014 12.0543C28.7732 12.5316 28.2259 13.6468 26.8577 15.4716C24.6114 18.4689 24.3616 18.1905 26.2277 19.9245C28.0095 21.5807 28.377 22.3857 28.4391 22.4875C29.1757 23.7141 27.6198 23.8111 27.6198 23.8111Z" fill="#ffffff"/>
</svg>
