<svg width="35" height="35" viewBox="0 0 35 35" fill="none" xmlns="http://www.w3.org/2000/svg">
    <path d="M14.5938 13.2891L22.0312 17.5156L14.5938 21.7422V13.2891ZM35 3.75V31.25C35 33.3203 33.3203 35 31.25 35H3.75C1.67969 35 0 33.3203 0 31.25V3.75C0 1.67969 1.67969 0 3.75 0H31.25C33.3203 0 35 1.67969 35 3.75ZM31.7188 17.5234C31.7188 17.5234 31.7188 12.8672 31.125 10.6328C30.7969 9.39844 29.8359 8.42969 28.6094 8.10156C26.3984 7.5 17.5 7.5 17.5 7.5C17.5 7.5 8.60156 7.5 6.39062 8.10156C5.16406 8.42969 4.20312 9.39844 3.875 10.6328C3.28125 12.8594 3.28125 17.5234 3.28125 17.5234C3.28125 17.5234 3.28125 22.1797 3.875 24.4141C4.20312 25.6484 5.16406 26.5781 6.39062 26.9062C8.60156 27.5 17.5 27.5 17.5 27.5C17.5 27.5 26.3984 27.5 28.6094 26.8984C29.8359 26.5703 30.7969 25.6406 31.125 24.4062C31.7188 22.1797 31.7188 17.5234 31.7188 17.5234Z" fill="#ffffff"/>
</svg>
